%TF.GenerationSoftware,KiCad,Pcbnew,10.0.6*%
%TF.CreationDate,2026-10-03T00:37:55-07:00*%
%TF.ProjectId,flight_tracker_pendant,666c6967-6874-45f7-9472-61636b65725f,rev?*%
%TF.SameCoordinates,Original*%
%TF.FileFunction,Copper,L2,Bot*%
%TF.FilePolarity,Positive*%
%FSLAX46Y46*%
G04 Gerber Fmt 4.6, Leading zero omitted, Abs format (unit mm)*
G04 Created by KiCad (PCBNEW 10.0.6) date 2026-10-03 00:37:55*
%MOMM*%
%LPD*%
G01*
G04 APERTURE LIST*
G04 Aperture macros list*
%AMRoundRect*
0 Rectangle with rounded corners*
0 $1 Rounding radius*
0 $2 $3 $4 $5 $6 $7 $8 $9 X,Y pos of 4 corners*
0 Add a 4 corners polygon primitive as box body*
4,1,4,$2,$3,$4,$5,$6,$7,$8,$9,$2,$3,0*
0 Add four circle primitives for the rounded corners*
1,1,$1+$1,$2,$3*
1,1,$1+$1,$4,$5*
1,1,$1+$1,$6,$7*
1,1,$1+$1,$8,$9*
0 Add four rect primitives between the rounded corners*
20,1,$1+$1,$2,$3,$4,$5,0*
20,1,$1+$1,$4,$5,$6,$7,0*
20,1,$1+$1,$6,$7,$8,$9,0*
20,1,$1+$1,$8,$9,$2,$3,0*%
G04 Aperture macros list end*
%TA.AperFunction,ComponentPad*%
%ADD10R,1.700000X1.700000*%
%TD*%
%TA.AperFunction,ComponentPad*%
%ADD11C,1.700000*%
%TD*%
%TA.AperFunction,SMDPad,CuDef*%
%ADD12RoundRect,0.500000X-1.000000X-0.500000X1.000000X-0.500000X1.000000X0.500000X-1.000000X0.500000X0*%
%TD*%
%TA.AperFunction,HeatsinkPad*%
%ADD13RoundRect,0.250000X-1.500000X-1.500000X1.500000X-1.500000X1.500000X1.500000X-1.500000X1.500000X0*%
%TD*%
%TA.AperFunction,SMDPad,CuDef*%
%ADD14RoundRect,0.250000X-0.900000X-0.400000X0.900000X-0.400000X0.900000X0.400000X-0.900000X0.400000X0*%
%TD*%
%TA.AperFunction,SMDPad,CuDef*%
%ADD15C,1.300000*%
%TD*%
%TA.AperFunction,ViaPad*%
%ADD16C,0.600000*%
%TD*%
%TA.AperFunction,Conductor*%
%ADD17C,0.200000*%
%TD*%
G04 APERTURE END LIST*
D10*
%TO.P,BT1,1,+_1*%
%TO.N,Net-(BT1-+)*%
X125500000Y-88000000D03*
D11*
%TO.P,BT1,2,-_2*%
%TO.N,GND*%
X125500000Y-90540000D03*
%TD*%
D10*
%TO.P,J1,1,Pin_1_1*%
%TO.N,/VCC*%
X118880000Y-83500000D03*
D11*
%TO.P,J1,2,Pin_2_2*%
%TO.N,GND*%
X121420000Y-83500000D03*
%TO.P,J1,3,Pin_3_3*%
%TO.N,/DIN*%
X123960000Y-83500000D03*
%TO.P,J1,4,Pin_4_4*%
%TO.N,/CLK*%
X126500000Y-83500000D03*
%TO.P,J1,5,Pin_5_5*%
%TO.N,/CS*%
X129040000Y-83500000D03*
%TO.P,J1,6,Pin_6_6*%
%TO.N,/DC*%
X131580000Y-83500000D03*
%TO.P,J1,7,Pin_7_7*%
%TO.N,/RST*%
X134120000Y-83500000D03*
%TO.P,J1,8,Pin_8_8*%
%TO.N,/BL*%
X136660000Y-83500000D03*
%TD*%
D12*
%TO.P,U1,1,D0_1*%
%TO.N,/BL*%
X119040000Y-101390000D03*
%TO.P,U1,2,D1_2*%
%TO.N,/RST*%
X119040000Y-98850000D03*
%TO.P,U1,3,D2_3*%
%TO.N,/DC*%
X119040000Y-96310000D03*
%TO.P,U1,4,D3_4*%
%TO.N,Net-(BZ1-+)*%
X119040000Y-93770000D03*
%TO.P,U1,5,D4_5*%
%TO.N,unconnected-(U1-D4-Pad5)*%
X119040000Y-91230000D03*
%TO.P,U1,6,D5_6*%
%TO.N,unconnected-(U1-D5-Pad6)*%
X119040000Y-88690000D03*
%TO.P,U1,7,D6_7*%
%TO.N,unconnected-(U1-D6-Pad7)*%
X119040000Y-86150000D03*
%TO.P,U1,8,D7_8*%
%TO.N,/CS*%
X136040000Y-86150000D03*
%TO.P,U1,9,D8_9*%
%TO.N,/CLK*%
X136040000Y-88690000D03*
%TO.P,U1,10,D9/BOOT_10*%
%TO.N,unconnected-(U1-D9{slash}BOOT-Pad10)*%
X136040000Y-91230000D03*
%TO.P,U1,11,D10_11*%
%TO.N,/DIN*%
X136040000Y-93770000D03*
%TO.P,U1,12,3V3_OUT_12*%
%TO.N,/VCC*%
X136040000Y-96310000D03*
%TO.P,U1,13,GND_13*%
%TO.N,GND*%
X136040000Y-98850000D03*
%TO.P,U1,14,VBUS_14*%
%TO.N,unconnected-(U1-VBUS-Pad14)*%
X136040000Y-101390000D03*
D13*
%TO.P,U1,15,D3/MTDI_15*%
%TO.N,unconnected-(U1-D3{slash}MTDI-Pad15)*%
X129640000Y-93170000D03*
D14*
%TO.P,U1,16,D5/MTDO_16*%
%TO.N,unconnected-(U1-D5{slash}MTDO-Pad16)*%
X123040000Y-94170000D03*
%TO.P,U1,17,EN_17*%
%TO.N,unconnected-(U1-EN-Pad17)*%
X123040000Y-96070000D03*
D15*
%TO.P,U1,18,GND_18*%
%TO.N,unconnected-(U1-GND-Pad18)*%
X126270000Y-102390000D03*
%TO.P,U1,19,D2/MTMS_19*%
%TO.N,unconnected-(U1-D2{slash}MTMS-Pad19)*%
X126270000Y-99810000D03*
%TO.P,U1,20,D4/MTCK_20*%
%TO.N,unconnected-(U1-D4{slash}MTCK-Pad20)*%
X126270000Y-97270000D03*
%TO.P,U1,21,VBAT_21*%
%TO.N,Net-(BT1-+)*%
X128810000Y-97270000D03*
%TO.P,U1,22,GND_22*%
%TO.N,unconnected-(U1-GND-Pad22)*%
X128810000Y-99810000D03*
%TO.P,U1,23*%
%TO.N,N/C*%
X128810000Y-102390000D03*
%TD*%
D16*
%TO.N,GND*%
X130500000Y-99000000D03*
%TO.N,Net-(BT1-+)*%
X127272512Y-95772514D03*
%TO.N,Net-(BZ1-+)*%
X122180000Y-86500000D03*
%TO.N,/BL*%
X134000000Y-85000000D03*
X130500000Y-90920000D03*
%TO.N,/VCC*%
X135420260Y-82965629D03*
X138500000Y-85500000D03*
%TD*%
%TO.N,GND*%
D17*
X130500000Y-99000000D02*
X130650000Y-98850000D01*
X130650000Y-98850000D02*
X136040000Y-98850000D01*
%TO.N,Net-(BT1-+)*%
X127312514Y-95772514D02*
X127272512Y-95772514D01*
X128810000Y-97270000D02*
X127312514Y-95772514D01*
%TO.N,Net-(BZ1-+)*%
X119730000Y-93770000D02*
X122180000Y-91320000D01*
X119040000Y-93770000D02*
X119730000Y-93770000D01*
X122180000Y-91320000D02*
X122180000Y-86500000D01*
%TO.N,/DC*%
X130430000Y-82350000D02*
X123483654Y-82350000D01*
X120840000Y-94660000D02*
X119190000Y-96310000D01*
X122780000Y-83053654D02*
X122780000Y-92345256D01*
X131580000Y-83500000D02*
X130430000Y-82350000D01*
X123483654Y-82350000D02*
X122780000Y-83053654D01*
X119190000Y-96310000D02*
X119040000Y-96310000D01*
X122780000Y-92345256D02*
X120840000Y-94285256D01*
X120840000Y-94285256D02*
X120840000Y-94660000D01*
%TO.N,/BL*%
X127590000Y-91435256D02*
X128105256Y-90920000D01*
X120806497Y-101390000D02*
X127590000Y-94606497D01*
X134150000Y-84850000D02*
X135310000Y-84850000D01*
X128105256Y-90920000D02*
X130500000Y-90920000D01*
X127590000Y-94606497D02*
X127590000Y-91435256D01*
X119040000Y-101390000D02*
X120806497Y-101390000D01*
X134000000Y-85000000D02*
X134150000Y-84850000D01*
X135310000Y-84850000D02*
X136660000Y-83500000D01*
%TO.N,/VCC*%
X138500000Y-95350000D02*
X138500000Y-85500000D01*
X118880000Y-83500000D02*
X120830000Y-81550000D01*
X134004631Y-81550000D02*
X135420260Y-82965629D01*
X136040000Y-96310000D02*
X137540000Y-96310000D01*
X137540000Y-96310000D02*
X138500000Y-95350000D01*
X120830000Y-81550000D02*
X134004631Y-81550000D01*
%TO.N,/DIN*%
X134230000Y-93770000D02*
X136040000Y-93770000D01*
X123960000Y-83500000D02*
X134230000Y-93770000D01*
%TO.N,/CLK*%
X131690000Y-88690000D02*
X136040000Y-88690000D01*
X126500000Y-83500000D02*
X131690000Y-88690000D01*
%TO.N,/CS*%
X129040000Y-83500000D02*
X131690000Y-86150000D01*
X131690000Y-86150000D02*
X136040000Y-86150000D01*
%TO.N,/RST*%
X134120000Y-83500000D02*
X132570000Y-81950000D01*
X120030000Y-83263654D02*
X120030000Y-84650000D01*
X121343654Y-81950000D02*
X120030000Y-83263654D01*
X117240000Y-98550000D02*
X117540000Y-98850000D01*
X120030000Y-84650000D02*
X117901358Y-84650000D01*
X117901358Y-84650000D02*
X117240000Y-85311358D01*
X132570000Y-81950000D02*
X121343654Y-81950000D01*
X117540000Y-98850000D02*
X119040000Y-98850000D01*
X117240000Y-85311358D02*
X117240000Y-98550000D01*
%TD*%
%TA.AperFunction,Conductor*%
%TO.N,GND*%
G36*
X132095702Y-92485383D02*
G01*
X132102180Y-92491415D01*
X133745139Y-94134374D01*
X133745149Y-94134385D01*
X133749479Y-94138715D01*
X133749480Y-94138716D01*
X133861284Y-94250520D01*
X133931890Y-94291284D01*
X133958070Y-94306399D01*
X133986072Y-94322566D01*
X134034287Y-94373134D01*
X134047584Y-94418969D01*
X134050113Y-94447414D01*
X134050113Y-94447415D01*
X134050114Y-94447418D01*
X134072550Y-94525829D01*
X134106089Y-94643045D01*
X134106090Y-94643048D01*
X134106091Y-94643049D01*
X134200302Y-94823407D01*
X134200304Y-94823409D01*
X134313015Y-94961639D01*
X134340124Y-95026036D01*
X134328115Y-95094865D01*
X134313015Y-95118361D01*
X134245352Y-95201344D01*
X134200302Y-95256593D01*
X134158082Y-95337420D01*
X134106089Y-95436954D01*
X134076886Y-95539017D01*
X134053717Y-95619992D01*
X134050114Y-95632583D01*
X134050113Y-95632586D01*
X134039500Y-95751966D01*
X134039500Y-96868028D01*
X134039501Y-96868034D01*
X134050113Y-96987415D01*
X134106089Y-97183045D01*
X134106090Y-97183048D01*
X134106091Y-97183049D01*
X134200302Y-97363407D01*
X134200304Y-97363409D01*
X134313338Y-97502035D01*
X134340447Y-97566432D01*
X134328438Y-97635261D01*
X134313338Y-97658757D01*
X134200721Y-97796870D01*
X134106557Y-97977138D01*
X134050609Y-98172671D01*
X134050608Y-98172674D01*
X134040000Y-98291999D01*
X134040000Y-99408000D01*
X134050608Y-99527325D01*
X134050609Y-99527328D01*
X134106557Y-99722861D01*
X134200721Y-99903129D01*
X134313338Y-100041242D01*
X134340447Y-100105638D01*
X134328438Y-100174468D01*
X134313338Y-100197963D01*
X134200305Y-100336587D01*
X134106089Y-100516954D01*
X134061332Y-100673376D01*
X134057276Y-100687554D01*
X134050114Y-100712583D01*
X134050113Y-100712586D01*
X134039500Y-100831966D01*
X134039500Y-101948028D01*
X134039500Y-101948033D01*
X134039501Y-101948036D01*
X134039530Y-101948360D01*
X134050113Y-102067415D01*
X134106089Y-102263045D01*
X134106090Y-102263048D01*
X134106091Y-102263049D01*
X134200302Y-102443407D01*
X134200304Y-102443409D01*
X134328890Y-102601109D01*
X134422803Y-102677684D01*
X134486593Y-102729698D01*
X134666951Y-102823909D01*
X134862582Y-102879886D01*
X134981963Y-102890500D01*
X136551905Y-102890499D01*
X136618944Y-102910184D01*
X136664699Y-102962987D01*
X136674643Y-103032146D01*
X136645618Y-103095702D01*
X136634876Y-103106650D01*
X136594362Y-103143128D01*
X136589427Y-103147343D01*
X136024873Y-103604511D01*
X136019722Y-103608463D01*
X135432031Y-104035446D01*
X135426681Y-104039123D01*
X134817444Y-104434766D01*
X134811909Y-104438158D01*
X134182802Y-104801372D01*
X134177097Y-104804470D01*
X133529832Y-105134269D01*
X133523972Y-105137064D01*
X132860342Y-105432531D01*
X132854345Y-105435015D01*
X132176157Y-105695347D01*
X132170037Y-105697514D01*
X131479167Y-105921991D01*
X131472943Y-105923835D01*
X130771243Y-106111855D01*
X130764930Y-106113370D01*
X130054381Y-106264401D01*
X130047998Y-106265584D01*
X129330520Y-106379222D01*
X129324084Y-106380070D01*
X128601610Y-106456005D01*
X128595138Y-106456514D01*
X127869708Y-106494533D01*
X127863218Y-106494703D01*
X127136782Y-106494703D01*
X127130292Y-106494533D01*
X126404861Y-106456514D01*
X126398389Y-106456005D01*
X125675915Y-106380070D01*
X125669479Y-106379222D01*
X124952001Y-106265584D01*
X124945618Y-106264401D01*
X124235069Y-106113370D01*
X124228756Y-106111855D01*
X123527056Y-105923835D01*
X123520832Y-105921991D01*
X122829962Y-105697514D01*
X122823842Y-105695347D01*
X122145654Y-105435015D01*
X122139657Y-105432531D01*
X121476027Y-105137064D01*
X121470167Y-105134269D01*
X120822902Y-104804470D01*
X120817197Y-104801372D01*
X120188090Y-104438158D01*
X120182555Y-104434766D01*
X119573309Y-104039117D01*
X119567968Y-104035446D01*
X118980277Y-103608463D01*
X118975126Y-103604511D01*
X118410572Y-103147343D01*
X118405637Y-103143128D01*
X118385277Y-103124796D01*
X118365122Y-103106648D01*
X118328474Y-103047164D01*
X118329803Y-102977307D01*
X118368689Y-102919258D01*
X118432785Y-102891448D01*
X118448094Y-102890499D01*
X120098028Y-102890499D01*
X120098036Y-102890499D01*
X120217418Y-102879886D01*
X120413049Y-102823909D01*
X120593407Y-102729698D01*
X120751109Y-102601109D01*
X120879698Y-102443407D01*
X120954896Y-102299448D01*
X125119500Y-102299448D01*
X125119500Y-102480551D01*
X125147829Y-102659410D01*
X125203787Y-102831636D01*
X125203788Y-102831639D01*
X125286006Y-102992997D01*
X125392441Y-103139494D01*
X125392445Y-103139499D01*
X125520500Y-103267554D01*
X125520505Y-103267558D01*
X125648287Y-103360396D01*
X125667006Y-103373996D01*
X125772484Y-103427740D01*
X125828360Y-103456211D01*
X125828363Y-103456212D01*
X125914476Y-103484191D01*
X126000591Y-103512171D01*
X126083429Y-103525291D01*
X126179449Y-103540500D01*
X126179454Y-103540500D01*
X126360551Y-103540500D01*
X126447259Y-103526765D01*
X126539409Y-103512171D01*
X126711639Y-103456211D01*
X126872994Y-103373996D01*
X127019501Y-103267553D01*
X127147553Y-103139501D01*
X127253996Y-102992994D01*
X127336211Y-102831639D01*
X127392171Y-102659409D01*
X127406422Y-102569425D01*
X127417527Y-102499321D01*
X127447456Y-102436186D01*
X127506768Y-102399255D01*
X127576630Y-102400253D01*
X127634863Y-102438863D01*
X127662473Y-102499321D01*
X127687829Y-102659410D01*
X127743787Y-102831636D01*
X127743788Y-102831639D01*
X127826006Y-102992997D01*
X127932441Y-103139494D01*
X127932445Y-103139499D01*
X128060500Y-103267554D01*
X128060505Y-103267558D01*
X128188287Y-103360396D01*
X128207006Y-103373996D01*
X128312484Y-103427740D01*
X128368360Y-103456211D01*
X128368363Y-103456212D01*
X128454476Y-103484191D01*
X128540591Y-103512171D01*
X128623429Y-103525291D01*
X128719449Y-103540500D01*
X128719454Y-103540500D01*
X128900551Y-103540500D01*
X128987259Y-103526765D01*
X129079409Y-103512171D01*
X129251639Y-103456211D01*
X129412994Y-103373996D01*
X129559501Y-103267553D01*
X129687553Y-103139501D01*
X129793996Y-102992994D01*
X129876211Y-102831639D01*
X129932171Y-102659409D01*
X129946765Y-102567259D01*
X129960500Y-102480551D01*
X129960500Y-102299448D01*
X129944019Y-102195397D01*
X129932171Y-102120591D01*
X129876211Y-101948361D01*
X129876211Y-101948360D01*
X129836548Y-101870519D01*
X129793996Y-101787006D01*
X129753714Y-101731562D01*
X129687558Y-101640505D01*
X129687554Y-101640500D01*
X129559499Y-101512445D01*
X129559494Y-101512441D01*
X129412997Y-101406006D01*
X129412996Y-101406005D01*
X129412994Y-101406004D01*
X129344696Y-101371204D01*
X129251639Y-101323788D01*
X129251636Y-101323787D01*
X129079410Y-101267829D01*
X128900551Y-101239500D01*
X128900546Y-101239500D01*
X128719454Y-101239500D01*
X128719449Y-101239500D01*
X128540589Y-101267829D01*
X128368363Y-101323787D01*
X128368360Y-101323788D01*
X128207002Y-101406006D01*
X128060505Y-101512441D01*
X128060500Y-101512445D01*
X127932445Y-101640500D01*
X127932441Y-101640505D01*
X127826006Y-101787002D01*
X127743788Y-101948360D01*
X127743787Y-101948363D01*
X127687829Y-102120589D01*
X127662473Y-102280678D01*
X127632544Y-102343813D01*
X127573232Y-102380744D01*
X127503369Y-102379746D01*
X127445137Y-102341136D01*
X127417527Y-102280678D01*
X127403740Y-102193639D01*
X127392171Y-102120591D01*
X127336211Y-101948361D01*
X127336211Y-101948360D01*
X127296548Y-101870519D01*
X127253996Y-101787006D01*
X127213714Y-101731562D01*
X127147558Y-101640505D01*
X127147554Y-101640500D01*
X127019499Y-101512445D01*
X127019494Y-101512441D01*
X126872997Y-101406006D01*
X126872996Y-101406005D01*
X126872994Y-101406004D01*
X126804696Y-101371204D01*
X126711639Y-101323788D01*
X126711636Y-101323787D01*
X126539410Y-101267829D01*
X126360551Y-101239500D01*
X126360546Y-101239500D01*
X126179454Y-101239500D01*
X126179449Y-101239500D01*
X126000589Y-101267829D01*
X125828363Y-101323787D01*
X125828360Y-101323788D01*
X125667002Y-101406006D01*
X125520505Y-101512441D01*
X125520500Y-101512445D01*
X125392445Y-101640500D01*
X125392441Y-101640505D01*
X125286006Y-101787002D01*
X125203788Y-101948360D01*
X125203787Y-101948363D01*
X125147829Y-102120589D01*
X125119500Y-102299448D01*
X120954896Y-102299448D01*
X120973909Y-102263049D01*
X120973911Y-102263043D01*
X120974648Y-102260469D01*
X121014671Y-102120591D01*
X121029886Y-102067418D01*
X121034768Y-102012494D01*
X121060311Y-101947464D01*
X121096281Y-101916089D01*
X121175213Y-101870520D01*
X121287017Y-101758716D01*
X121287017Y-101758714D01*
X121297225Y-101748507D01*
X121297227Y-101748504D01*
X125135680Y-97910050D01*
X125197001Y-97876567D01*
X125266693Y-97881551D01*
X125322626Y-97923423D01*
X125323677Y-97924848D01*
X125392441Y-98019494D01*
X125392445Y-98019499D01*
X125520500Y-98147554D01*
X125520505Y-98147558D01*
X125554951Y-98172584D01*
X125667006Y-98253996D01*
X125741522Y-98291964D01*
X125828360Y-98336211D01*
X125828363Y-98336212D01*
X125914476Y-98364191D01*
X126000591Y-98392171D01*
X126073639Y-98403740D01*
X126160678Y-98417527D01*
X126223813Y-98447456D01*
X126260744Y-98506768D01*
X126259746Y-98576631D01*
X126221136Y-98634863D01*
X126160678Y-98662473D01*
X126000589Y-98687829D01*
X125828363Y-98743787D01*
X125828360Y-98743788D01*
X125667004Y-98826005D01*
X125520505Y-98932441D01*
X125520500Y-98932445D01*
X125392445Y-99060500D01*
X125392441Y-99060505D01*
X125286006Y-99207002D01*
X125203788Y-99368360D01*
X125203787Y-99368363D01*
X125147829Y-99540589D01*
X125119500Y-99719448D01*
X125119500Y-99900551D01*
X125147829Y-100079410D01*
X125203787Y-100251636D01*
X125203788Y-100251639D01*
X125286006Y-100412997D01*
X125392441Y-100559494D01*
X125392445Y-100559499D01*
X125520500Y-100687554D01*
X125520505Y-100687558D01*
X125554951Y-100712584D01*
X125667006Y-100793996D01*
X125741522Y-100831964D01*
X125828360Y-100876211D01*
X125828363Y-100876212D01*
X125914476Y-100904191D01*
X126000591Y-100932171D01*
X126083429Y-100945291D01*
X126179449Y-100960500D01*
X126179454Y-100960500D01*
X126360551Y-100960500D01*
X126447259Y-100946765D01*
X126539409Y-100932171D01*
X126711639Y-100876211D01*
X126872994Y-100793996D01*
X127019501Y-100687553D01*
X127147553Y-100559501D01*
X127253996Y-100412994D01*
X127336211Y-100251639D01*
X127392171Y-100079409D01*
X127411703Y-99956091D01*
X127417527Y-99919321D01*
X127447456Y-99856186D01*
X127506768Y-99819255D01*
X127576630Y-99820253D01*
X127634863Y-99858863D01*
X127662473Y-99919321D01*
X127687829Y-100079410D01*
X127743787Y-100251636D01*
X127743788Y-100251639D01*
X127826006Y-100412997D01*
X127932441Y-100559494D01*
X127932445Y-100559499D01*
X128060500Y-100687554D01*
X128060505Y-100687558D01*
X128094951Y-100712584D01*
X128207006Y-100793996D01*
X128281522Y-100831964D01*
X128368360Y-100876211D01*
X128368363Y-100876212D01*
X128454476Y-100904191D01*
X128540591Y-100932171D01*
X128623429Y-100945291D01*
X128719449Y-100960500D01*
X128719454Y-100960500D01*
X128900551Y-100960500D01*
X128987259Y-100946765D01*
X129079409Y-100932171D01*
X129251639Y-100876211D01*
X129412994Y-100793996D01*
X129559501Y-100687553D01*
X129687553Y-100559501D01*
X129793996Y-100412994D01*
X129876211Y-100251639D01*
X129932171Y-100079409D01*
X129951703Y-99956091D01*
X129960500Y-99900551D01*
X129960500Y-99719448D01*
X129944019Y-99615397D01*
X129932171Y-99540591D01*
X129876211Y-99368361D01*
X129876211Y-99368360D01*
X129847740Y-99312484D01*
X129793996Y-99207006D01*
X129776411Y-99182802D01*
X129687558Y-99060505D01*
X129687554Y-99060500D01*
X129559499Y-98932445D01*
X129559494Y-98932441D01*
X129412996Y-98826005D01*
X129251639Y-98743788D01*
X129251636Y-98743787D01*
X129079410Y-98687829D01*
X128919321Y-98662473D01*
X128856186Y-98632544D01*
X128819255Y-98573232D01*
X128820253Y-98503370D01*
X128858863Y-98445137D01*
X128919321Y-98417527D01*
X128989425Y-98406422D01*
X129079409Y-98392171D01*
X129251639Y-98336211D01*
X129412994Y-98253996D01*
X129559501Y-98147553D01*
X129687553Y-98019501D01*
X129793996Y-97872994D01*
X129876211Y-97711639D01*
X129932171Y-97539409D01*
X129949154Y-97432180D01*
X129960500Y-97360551D01*
X129960500Y-97179448D01*
X129942010Y-97062710D01*
X129932171Y-97000591D01*
X129889102Y-96868036D01*
X129876212Y-96828363D01*
X129876211Y-96828360D01*
X129815952Y-96710097D01*
X129793996Y-96667006D01*
X129761878Y-96622799D01*
X129687558Y-96520505D01*
X129687554Y-96520500D01*
X129559499Y-96392445D01*
X129559494Y-96392441D01*
X129412997Y-96286006D01*
X129412996Y-96286005D01*
X129412994Y-96286004D01*
X129361300Y-96259664D01*
X129251639Y-96203788D01*
X129251636Y-96203787D01*
X129079410Y-96147829D01*
X128900551Y-96119500D01*
X128900546Y-96119500D01*
X128719454Y-96119500D01*
X128719449Y-96119500D01*
X128599949Y-96138427D01*
X128530656Y-96129472D01*
X128492870Y-96103635D01*
X128097152Y-95707917D01*
X128063667Y-95646594D01*
X128063216Y-95644427D01*
X128060860Y-95632583D01*
X128048151Y-95568688D01*
X128054378Y-95499099D01*
X128097241Y-95443921D01*
X128163131Y-95420677D01*
X128169731Y-95420499D01*
X131190008Y-95420499D01*
X131292797Y-95409999D01*
X131459334Y-95354814D01*
X131608656Y-95262712D01*
X131732712Y-95138656D01*
X131824814Y-94989334D01*
X131879999Y-94822797D01*
X131890500Y-94720009D01*
X131890499Y-92579095D01*
X131910184Y-92512057D01*
X131962987Y-92466302D01*
X132032146Y-92456358D01*
X132095702Y-92485383D01*
G37*
%TD.AperFunction*%
%TA.AperFunction,Conductor*%
G36*
X123542807Y-84784445D02*
G01*
X123643757Y-84817246D01*
X123853713Y-84850500D01*
X123853714Y-84850500D01*
X124066286Y-84850500D01*
X124066287Y-84850500D01*
X124276243Y-84817246D01*
X124318523Y-84803507D01*
X124388362Y-84801511D01*
X124444522Y-84833757D01*
X126048584Y-86437819D01*
X126082069Y-86499142D01*
X126077085Y-86568834D01*
X126035213Y-86624767D01*
X125969749Y-86649184D01*
X125960903Y-86649500D01*
X124602129Y-86649500D01*
X124602123Y-86649501D01*
X124542516Y-86655908D01*
X124407671Y-86706202D01*
X124407664Y-86706206D01*
X124292455Y-86792452D01*
X124292452Y-86792455D01*
X124206206Y-86907664D01*
X124206202Y-86907671D01*
X124155908Y-87042517D01*
X124149501Y-87102116D01*
X124149500Y-87102135D01*
X124149500Y-88897870D01*
X124149501Y-88897876D01*
X124155908Y-88957483D01*
X124206202Y-89092328D01*
X124206206Y-89092335D01*
X124292452Y-89207544D01*
X124292455Y-89207547D01*
X124407664Y-89293793D01*
X124407671Y-89293797D01*
X124451610Y-89310185D01*
X124542517Y-89344091D01*
X124602127Y-89350500D01*
X124612685Y-89350499D01*
X124679723Y-89370179D01*
X124700372Y-89386818D01*
X125370591Y-90057037D01*
X125307007Y-90074075D01*
X125192993Y-90139901D01*
X125099901Y-90232993D01*
X125034075Y-90347007D01*
X125017037Y-90410591D01*
X124384728Y-89778282D01*
X124384727Y-89778282D01*
X124345380Y-89832439D01*
X124248904Y-90021782D01*
X124183242Y-90223869D01*
X124183242Y-90223872D01*
X124150000Y-90433753D01*
X124150000Y-90646246D01*
X124183242Y-90856127D01*
X124183242Y-90856130D01*
X124248904Y-91058217D01*
X124345375Y-91247550D01*
X124384728Y-91301716D01*
X125017037Y-90669408D01*
X125034075Y-90732993D01*
X125099901Y-90847007D01*
X125192993Y-90940099D01*
X125307007Y-91005925D01*
X125370590Y-91022962D01*
X124738282Y-91655269D01*
X124738282Y-91655270D01*
X124792449Y-91694624D01*
X124981782Y-91791095D01*
X125183870Y-91856757D01*
X125393754Y-91890000D01*
X125606246Y-91890000D01*
X125816127Y-91856757D01*
X125816130Y-91856757D01*
X126018217Y-91791095D01*
X126207554Y-91694622D01*
X126261716Y-91655270D01*
X126261717Y-91655270D01*
X125629408Y-91022962D01*
X125692993Y-91005925D01*
X125807007Y-90940099D01*
X125900099Y-90847007D01*
X125965925Y-90732993D01*
X125982962Y-90669408D01*
X126615270Y-91301717D01*
X126615270Y-91301716D01*
X126654622Y-91247554D01*
X126751095Y-91058217D01*
X126816757Y-90856130D01*
X126816757Y-90856127D01*
X126850000Y-90646246D01*
X126850000Y-90433753D01*
X126816757Y-90223872D01*
X126816757Y-90223869D01*
X126751095Y-90021782D01*
X126654624Y-89832449D01*
X126615270Y-89778282D01*
X126615269Y-89778282D01*
X125982962Y-90410590D01*
X125965925Y-90347007D01*
X125900099Y-90232993D01*
X125807007Y-90139901D01*
X125692993Y-90074075D01*
X125629409Y-90057037D01*
X126299627Y-89386818D01*
X126360950Y-89353333D01*
X126387307Y-89350499D01*
X126397872Y-89350499D01*
X126457483Y-89344091D01*
X126592331Y-89293796D01*
X126707546Y-89207546D01*
X126793796Y-89092331D01*
X126844091Y-88957483D01*
X126850500Y-88897873D01*
X126850499Y-87539095D01*
X126870184Y-87472057D01*
X126922987Y-87426302D01*
X126992146Y-87416358D01*
X127055702Y-87445383D01*
X127062180Y-87451415D01*
X129718584Y-90107819D01*
X129752069Y-90169142D01*
X129747085Y-90238834D01*
X129705213Y-90294767D01*
X129639749Y-90319184D01*
X129630903Y-90319500D01*
X128191925Y-90319500D01*
X128191909Y-90319499D01*
X128184313Y-90319499D01*
X128026199Y-90319499D01*
X127918843Y-90348265D01*
X127873466Y-90360424D01*
X127873465Y-90360425D01*
X127823352Y-90389359D01*
X127823351Y-90389360D01*
X127779945Y-90414420D01*
X127736541Y-90439479D01*
X127736538Y-90439481D01*
X127109481Y-91066538D01*
X127109477Y-91066543D01*
X127060265Y-91151781D01*
X127060266Y-91151782D01*
X127030422Y-91203472D01*
X127006795Y-91291649D01*
X126989499Y-91356199D01*
X126989499Y-91356201D01*
X126989499Y-91524302D01*
X126989500Y-91524315D01*
X126989500Y-94306399D01*
X126969815Y-94373438D01*
X126953181Y-94394080D01*
X124902180Y-96445080D01*
X124840857Y-96478565D01*
X124771165Y-96473581D01*
X124715232Y-96431709D01*
X124690815Y-96366245D01*
X124690499Y-96357421D01*
X124690499Y-95619992D01*
X124685258Y-95568690D01*
X124679999Y-95517203D01*
X124679998Y-95517200D01*
X124660783Y-95459213D01*
X124624814Y-95350666D01*
X124532712Y-95201344D01*
X124532707Y-95201339D01*
X124529209Y-95196915D01*
X124503066Y-95132121D01*
X124516103Y-95063478D01*
X124529209Y-95043085D01*
X124532703Y-95038664D01*
X124532712Y-95038656D01*
X124624814Y-94889334D01*
X124679999Y-94722797D01*
X124690500Y-94620009D01*
X124690499Y-93719992D01*
X124679999Y-93617203D01*
X124624814Y-93450666D01*
X124532712Y-93301344D01*
X124408656Y-93177288D01*
X124259334Y-93085186D01*
X124092797Y-93030001D01*
X124092795Y-93030000D01*
X123990016Y-93019500D01*
X123990009Y-93019500D01*
X123254354Y-93019500D01*
X123187315Y-92999815D01*
X123141560Y-92947011D01*
X123131616Y-92877853D01*
X123160641Y-92814297D01*
X123166659Y-92807832D01*
X123260520Y-92713972D01*
X123310639Y-92627160D01*
X123339577Y-92577041D01*
X123380500Y-92424314D01*
X123380500Y-92266199D01*
X123380500Y-84902379D01*
X123400185Y-84835340D01*
X123452989Y-84789585D01*
X123522147Y-84779641D01*
X123542807Y-84784445D01*
G37*
%TD.AperFunction*%
%TD*%
M02*
