%TF.GenerationSoftware,KiCad,Pcbnew,10.0.6*%
%TF.CreationDate,2026-10-03T00:37:55-07:00*%
%TF.ProjectId,flight_tracker_pendant,666c6967-6874-45f7-9472-61636b65725f,rev?*%
%TF.SameCoordinates,Original*%
%TF.FileFunction,Legend,Top*%
%TF.FilePolarity,Positive*%
%FSLAX46Y46*%
G04 Gerber Fmt 4.6, Leading zero omitted, Abs format (unit mm)*
G04 Created by KiCad (PCBNEW 10.0.6) date 2026-10-03 00:37:55*
%MOMM*%
%LPD*%
G01*
G04 APERTURE LIST*
%ADD10C,0.250000*%
%ADD11C,0.200000*%
%ADD12C,0.100000*%
%ADD13C,0.150000*%
%ADD14C,0.120000*%
G04 APERTURE END LIST*
D10*
X114307329Y-89609632D02*
X114378758Y-89657252D01*
X114378758Y-89657252D02*
X114307329Y-89704871D01*
X114307329Y-89704871D02*
X114235901Y-89657252D01*
X114235901Y-89657252D02*
X114307329Y-89609632D01*
X114307329Y-89609632D02*
X114307329Y-89704871D01*
X123021614Y-89609632D02*
X123093043Y-89657252D01*
X123093043Y-89657252D02*
X123021614Y-89704871D01*
X123021614Y-89704871D02*
X122950186Y-89657252D01*
X122950186Y-89657252D02*
X123021614Y-89609632D01*
X123021614Y-89609632D02*
X123021614Y-89704871D01*
X120021614Y-91219576D02*
X120093043Y-91267196D01*
X120093043Y-91267196D02*
X120021614Y-91314815D01*
X120021614Y-91314815D02*
X119950186Y-91267196D01*
X119950186Y-91267196D02*
X120021614Y-91219576D01*
X120021614Y-91219576D02*
X120021614Y-91314815D01*
X123378757Y-91648148D02*
X123378757Y-90219576D01*
X126735899Y-91219576D02*
X126807328Y-91267196D01*
X126807328Y-91267196D02*
X126735899Y-91314815D01*
X126735899Y-91314815D02*
X126664471Y-91267196D01*
X126664471Y-91267196D02*
X126735899Y-91219576D01*
X126735899Y-91219576D02*
X126735899Y-91314815D01*
X120664471Y-91829520D02*
X121950186Y-93115235D01*
X123664471Y-93258092D02*
X123664471Y-91829520D01*
X126950185Y-91877140D02*
X125664471Y-93162854D01*
X132021613Y-92543806D02*
X133164471Y-92543806D01*
X132593042Y-92924759D02*
X132593042Y-92162854D01*
X112235901Y-93534703D02*
X112235901Y-93772798D01*
X111878758Y-93677560D02*
X112235901Y-93772798D01*
X112235901Y-93772798D02*
X112593044Y-93677560D01*
X112021615Y-93963274D02*
X112235901Y-93772798D01*
X112235901Y-93772798D02*
X112450187Y-93963274D01*
X121807328Y-93439464D02*
X123093043Y-94725179D01*
X123664471Y-94868036D02*
X123664471Y-93439464D01*
X125807328Y-93487084D02*
X124521614Y-94772798D01*
X113164472Y-95763694D02*
X114307330Y-95763694D01*
X115021615Y-95763694D02*
X116164473Y-95763694D01*
X116878758Y-95620837D02*
X118021616Y-95620837D01*
X118021616Y-95906551D02*
X116878758Y-95906551D01*
X118735901Y-95620837D02*
X119878759Y-95620837D01*
X119878759Y-95906551D02*
X118735901Y-95906551D01*
X120593044Y-95477980D02*
X121735902Y-95763694D01*
X121735902Y-95763694D02*
X120593044Y-96049408D01*
X123807330Y-95144647D02*
X123807330Y-95382742D01*
X123450187Y-95287504D02*
X123807330Y-95382742D01*
X123807330Y-95382742D02*
X124164473Y-95287504D01*
X123593044Y-95573218D02*
X123807330Y-95382742D01*
X123807330Y-95382742D02*
X124021616Y-95573218D01*
X127021616Y-95477980D02*
X125878758Y-95763694D01*
X125878758Y-95763694D02*
X127021616Y-96049408D01*
X127735901Y-95620837D02*
X128878759Y-95620837D01*
X128878759Y-95906551D02*
X127735901Y-95906551D01*
X129593044Y-95620837D02*
X130735902Y-95620837D01*
X130735902Y-95906551D02*
X129593044Y-95906551D01*
X131450187Y-95763694D02*
X132593045Y-95763694D01*
X133307330Y-95763694D02*
X134450188Y-95763694D01*
X138664473Y-95144647D02*
X138521616Y-95335123D01*
X115450186Y-97373638D02*
X116593044Y-97373638D01*
X116021615Y-97754591D02*
X116021615Y-96992686D01*
X122950186Y-96706972D02*
X121664472Y-97992686D01*
X123807329Y-98087924D02*
X123807329Y-96659352D01*
X124378757Y-96659352D02*
X125664472Y-97945067D01*
X129307328Y-97659352D02*
X129378757Y-97706972D01*
X129378757Y-97706972D02*
X129307328Y-97754591D01*
X129307328Y-97754591D02*
X129235900Y-97706972D01*
X129235900Y-97706972D02*
X129307328Y-97659352D01*
X129307328Y-97659352D02*
X129307328Y-97754591D01*
X121093043Y-98316916D02*
X119807329Y-99602630D01*
X123093043Y-99697868D02*
X123093043Y-98269296D01*
X124807328Y-98269296D02*
X126093043Y-99555011D01*
X112021615Y-100879240D02*
X112093044Y-100926860D01*
X112093044Y-100926860D02*
X112021615Y-100974479D01*
X112021615Y-100974479D02*
X111950187Y-100926860D01*
X111950187Y-100926860D02*
X112021615Y-100879240D01*
X112021615Y-100879240D02*
X112021615Y-100974479D01*
X119664472Y-99974479D02*
X119521615Y-100164955D01*
X122950186Y-101307812D02*
X122950186Y-99879240D01*
X126378757Y-99974479D02*
X126235900Y-100164955D01*
X123807328Y-102917756D02*
X123807328Y-101489184D01*
X116593043Y-104099128D02*
X116664472Y-104146748D01*
X116664472Y-104146748D02*
X116593043Y-104194367D01*
X116593043Y-104194367D02*
X116521615Y-104146748D01*
X116521615Y-104146748D02*
X116593043Y-104099128D01*
X116593043Y-104099128D02*
X116593043Y-104194367D01*
X123093043Y-103194367D02*
X122950186Y-103384843D01*
X128307328Y-104099128D02*
X128378757Y-104146748D01*
X128378757Y-104146748D02*
X128307328Y-104194367D01*
X128307328Y-104194367D02*
X128235900Y-104146748D01*
X128235900Y-104146748D02*
X128307328Y-104099128D01*
X128307328Y-104099128D02*
X128307328Y-104194367D01*
D11*
G36*
X136354002Y-99363161D02*
G01*
X136354002Y-99321591D01*
X136457777Y-99325131D01*
X136540652Y-99334827D01*
X136606468Y-99349644D01*
X136658359Y-99369071D01*
X136702475Y-99394579D01*
X136733347Y-99422644D01*
X136752034Y-99453823D01*
X136758468Y-99488946D01*
X136753615Y-99524615D01*
X136738684Y-99561681D01*
X136710028Y-99605884D01*
X136640590Y-99696357D01*
X136594165Y-99764951D01*
X136582613Y-99803335D01*
X136589611Y-99831414D01*
X136609268Y-99853348D01*
X136641700Y-99870651D01*
X136689747Y-99883823D01*
X136758468Y-99892240D01*
X136758468Y-99934347D01*
X136650438Y-99930765D01*
X136565999Y-99921052D01*
X136500607Y-99906392D01*
X136450539Y-99887404D01*
X136396695Y-99853333D01*
X136364901Y-99814768D01*
X136354002Y-99770167D01*
X136363505Y-99723741D01*
X136397997Y-99655760D01*
X136468124Y-99559239D01*
X136517971Y-99488031D01*
X136529856Y-99451625D01*
X136524106Y-99427156D01*
X136507647Y-99406872D01*
X136480306Y-99389783D01*
X136425171Y-99371712D01*
X136354002Y-99363161D01*
G37*
G36*
X136913765Y-98610884D02*
G01*
X137001250Y-98623591D01*
X137078021Y-98644137D01*
X137145806Y-98672735D01*
X137203039Y-98708128D01*
X137242655Y-98745546D01*
X137266291Y-98785583D01*
X137274309Y-98829099D01*
X137267004Y-98870436D01*
X137245000Y-98910676D01*
X137209417Y-98949122D01*
X137158263Y-98987857D01*
X137491196Y-98987857D01*
X137560038Y-98984066D01*
X137596343Y-98975157D01*
X137610957Y-98965193D01*
X137621637Y-98947329D01*
X137626018Y-98917613D01*
X137626018Y-98900321D01*
X137737393Y-98900321D01*
X137737393Y-99241088D01*
X137626018Y-99241088D01*
X137617579Y-99198852D01*
X137598907Y-99180027D01*
X137563840Y-99170307D01*
X137491196Y-99166057D01*
X136690507Y-99166057D01*
X136620041Y-99170002D01*
X136583804Y-99179197D01*
X136569664Y-99189472D01*
X136559079Y-99208566D01*
X136554678Y-99241088D01*
X136446234Y-99241088D01*
X136371587Y-99004954D01*
X136444681Y-98996805D01*
X136517858Y-98994110D01*
X136452487Y-98953235D01*
X136407949Y-98911898D01*
X136391346Y-98884982D01*
X136523995Y-98884982D01*
X136533976Y-98915218D01*
X136565485Y-98945408D01*
X136610177Y-98971030D01*
X136656893Y-98987857D01*
X137035073Y-98987857D01*
X137073443Y-98965142D01*
X137100011Y-98942135D01*
X137116470Y-98917445D01*
X137121901Y-98892016D01*
X137113417Y-98861310D01*
X137089363Y-98837329D01*
X137048903Y-98818401D01*
X136997866Y-98805862D01*
X136926748Y-98797284D01*
X136829634Y-98794026D01*
X136727356Y-98797101D01*
X136652987Y-98805152D01*
X136600198Y-98816789D01*
X136557347Y-98834772D01*
X136532576Y-98857023D01*
X136523995Y-98884982D01*
X136391346Y-98884982D01*
X136380675Y-98867684D01*
X136371587Y-98821430D01*
X136379289Y-98778534D01*
X136401874Y-98739480D01*
X136439490Y-98703404D01*
X136493495Y-98669706D01*
X136557806Y-98642500D01*
X136631264Y-98622887D01*
X136715624Y-98610712D01*
X136813239Y-98606448D01*
X136913765Y-98610884D01*
G37*
G36*
X136817086Y-98325080D02*
G01*
X136927406Y-98321093D01*
X137008670Y-98310546D01*
X137067496Y-98294989D01*
X137113595Y-98271841D01*
X137141354Y-98242388D01*
X137151210Y-98204570D01*
X137144186Y-98174510D01*
X137122792Y-98145315D01*
X137085320Y-98116253D01*
X137028570Y-98086845D01*
X137085814Y-98036043D01*
X137137460Y-98059074D01*
X137183900Y-98088511D01*
X137225216Y-98125289D01*
X137255476Y-98164926D01*
X137273880Y-98207561D01*
X137280170Y-98253810D01*
X137272132Y-98306892D01*
X137248754Y-98354847D01*
X137210418Y-98398596D01*
X137156523Y-98438848D01*
X137089824Y-98472270D01*
X137013325Y-98496029D01*
X136925076Y-98510665D01*
X136822215Y-98515785D01*
X136719121Y-98510770D01*
X136631523Y-98496503D01*
X136556424Y-98473484D01*
X136491755Y-98441290D01*
X136439376Y-98402328D01*
X136402121Y-98359956D01*
X136379401Y-98313486D01*
X136371587Y-98262016D01*
X136372181Y-98257864D01*
X136485343Y-98257864D01*
X136491696Y-98278695D01*
X136510020Y-98295272D01*
X136541672Y-98308667D01*
X136605947Y-98320717D01*
X136711573Y-98325617D01*
X136711573Y-98190648D01*
X136615890Y-98194532D01*
X136553489Y-98204330D01*
X136514708Y-98218156D01*
X136492855Y-98235599D01*
X136485343Y-98257864D01*
X136372181Y-98257864D01*
X136379055Y-98209829D01*
X136400412Y-98164344D01*
X136434777Y-98124437D01*
X136482229Y-98089239D01*
X136541467Y-98060905D01*
X136614811Y-98040004D01*
X136705310Y-98026643D01*
X136817086Y-98021828D01*
X136817086Y-98325080D01*
G37*
G36*
X136583712Y-97710760D02*
G01*
X136515999Y-97687487D01*
X136463730Y-97663394D01*
X136424618Y-97638464D01*
X136395023Y-97610359D01*
X136377492Y-97580790D01*
X136371587Y-97549169D01*
X136378255Y-97519508D01*
X136396791Y-97496492D01*
X136426725Y-97478534D01*
X136484939Y-97460292D01*
X136546618Y-97454403D01*
X136603594Y-97459251D01*
X136650757Y-97473405D01*
X136674451Y-97487471D01*
X136688876Y-97504860D01*
X136693988Y-97526601D01*
X136690401Y-97543947D01*
X136680615Y-97556985D01*
X136662677Y-97569280D01*
X136624928Y-97588443D01*
X136593334Y-97609514D01*
X136583712Y-97630795D01*
X136592017Y-97651582D01*
X136617315Y-97668938D01*
X136664678Y-97683747D01*
X136720047Y-97692682D01*
X136798830Y-97698967D01*
X136907578Y-97701381D01*
X136998162Y-97701381D01*
X137066967Y-97697777D01*
X137103583Y-97689316D01*
X137118425Y-97679727D01*
X137129206Y-97662483D01*
X137133625Y-97633726D01*
X137133625Y-97623224D01*
X137245000Y-97623224D01*
X137245000Y-97954612D01*
X137133625Y-97954612D01*
X137129144Y-97921876D01*
X137118392Y-97902770D01*
X137104041Y-97892575D01*
X137067593Y-97883460D01*
X136998162Y-97879581D01*
X136706810Y-97879581D01*
X136636511Y-97883512D01*
X136600382Y-97892672D01*
X136586306Y-97902889D01*
X136575746Y-97921978D01*
X136571347Y-97954612D01*
X136462171Y-97954612D01*
X136371587Y-97727076D01*
X136461111Y-97715249D01*
X136583712Y-97710760D01*
G37*
G36*
X137124212Y-96547826D02*
G01*
X137174395Y-96561044D01*
X137212851Y-96582749D01*
X137240001Y-96610257D01*
X137256745Y-96641604D01*
X137262585Y-96677662D01*
X137254377Y-96728004D01*
X137232331Y-96765558D01*
X137198797Y-96793300D01*
X137153866Y-96813265D01*
X137201772Y-96854519D01*
X137235382Y-96896748D01*
X137255723Y-96941043D01*
X137262585Y-96987801D01*
X137255754Y-97028848D01*
X137237388Y-97059493D01*
X137209371Y-97082177D01*
X137170666Y-97099765D01*
X137127180Y-97110104D01*
X137077205Y-97113635D01*
X137025062Y-97110004D01*
X136975565Y-97099017D01*
X136927324Y-97079813D01*
X136879551Y-97050669D01*
X136828426Y-97005939D01*
X136765573Y-96933211D01*
X136689042Y-96822889D01*
X136804263Y-96822889D01*
X136867132Y-96890813D01*
X136912341Y-96921709D01*
X136962970Y-96939383D01*
X137012083Y-96944815D01*
X137049184Y-96941445D01*
X137082609Y-96931235D01*
X137106030Y-96915515D01*
X137113933Y-96895282D01*
X137109616Y-96876171D01*
X137096530Y-96857718D01*
X137075567Y-96840465D01*
X137045056Y-96822889D01*
X136804263Y-96822889D01*
X136689042Y-96822889D01*
X136612838Y-96822889D01*
X136560378Y-96825782D01*
X136527704Y-96833061D01*
X136508516Y-96843698D01*
X136491375Y-96865923D01*
X136485343Y-96892986D01*
X136492552Y-96926392D01*
X136511258Y-96948391D01*
X136539721Y-96962333D01*
X136579957Y-96969630D01*
X136638588Y-96978486D01*
X136674112Y-96991563D01*
X136695255Y-97011080D01*
X136703422Y-97042414D01*
X136695183Y-97071162D01*
X136672372Y-97091995D01*
X136638051Y-97105853D01*
X136599282Y-97110314D01*
X136556459Y-97106627D01*
X136516136Y-97095324D01*
X136476814Y-97074950D01*
X136437991Y-97042805D01*
X136403098Y-96996354D01*
X136380055Y-96937103D01*
X136371587Y-96862114D01*
X136375546Y-96801548D01*
X136385967Y-96756454D01*
X136407330Y-96716849D01*
X136439273Y-96687773D01*
X136480881Y-96665406D01*
X136521338Y-96653189D01*
X136568425Y-96647090D01*
X136638209Y-96644689D01*
X137027837Y-96644689D01*
X137082109Y-96640680D01*
X137107853Y-96631250D01*
X137116039Y-96616894D01*
X137110062Y-96603214D01*
X137092263Y-96593250D01*
X137058428Y-96586413D01*
X137058428Y-96543084D01*
X137124212Y-96547826D01*
G37*
G36*
X137280170Y-96483879D02*
G01*
X136998803Y-96483879D01*
X136998803Y-96431660D01*
X137062430Y-96411587D01*
X137110511Y-96386642D01*
X137145154Y-96356381D01*
X137166902Y-96319709D01*
X137174658Y-96275003D01*
X137166356Y-96229906D01*
X137143883Y-96196064D01*
X137119960Y-96177197D01*
X137097066Y-96167693D01*
X137074091Y-96164801D01*
X137044292Y-96168957D01*
X137021700Y-96181800D01*
X137005509Y-96204939D01*
X136980576Y-96260202D01*
X136942579Y-96348067D01*
X136912249Y-96399518D01*
X136886427Y-96427882D01*
X136853342Y-96451839D01*
X136812690Y-96471912D01*
X136765667Y-96487148D01*
X136714908Y-96496229D01*
X136659183Y-96499316D01*
X136597525Y-96495759D01*
X136543322Y-96485425D01*
X136494879Y-96468242D01*
X136451180Y-96443384D01*
X136408600Y-96403974D01*
X136381410Y-96354888D01*
X136371587Y-96293663D01*
X136377457Y-96245924D01*
X136395395Y-96196917D01*
X136426175Y-96146238D01*
X136400359Y-96134472D01*
X136371587Y-96125478D01*
X136371587Y-96080146D01*
X136623646Y-96075261D01*
X136623646Y-96118932D01*
X136570971Y-96138097D01*
X136529608Y-96163230D01*
X136498635Y-96195277D01*
X136478555Y-96235827D01*
X136471238Y-96286971D01*
X136478062Y-96325754D01*
X136496334Y-96354284D01*
X136516088Y-96369735D01*
X136537112Y-96377900D01*
X136560356Y-96380516D01*
X136595513Y-96375317D01*
X136620715Y-96359218D01*
X136639061Y-96330801D01*
X136669899Y-96257418D01*
X136704414Y-96178719D01*
X136734379Y-96130802D01*
X136775324Y-96092504D01*
X136830184Y-96064075D01*
X136874021Y-96050640D01*
X136922257Y-96042530D01*
X136976088Y-96039748D01*
X137039895Y-96043695D01*
X137096622Y-96055255D01*
X137148051Y-96074712D01*
X137195174Y-96103251D01*
X137241363Y-96147571D01*
X137270067Y-96199323D01*
X137280170Y-96260251D01*
X137274115Y-96307552D01*
X137255387Y-96357371D01*
X137222834Y-96410216D01*
X137246910Y-96422930D01*
X137280170Y-96432198D01*
X137280170Y-96483879D01*
G37*
G36*
X136913765Y-95357960D02*
G01*
X137001250Y-95370667D01*
X137078021Y-95391213D01*
X137145806Y-95419811D01*
X137203039Y-95455204D01*
X137242655Y-95492622D01*
X137266291Y-95532659D01*
X137274309Y-95576175D01*
X137267004Y-95617512D01*
X137245000Y-95657752D01*
X137209417Y-95696198D01*
X137158263Y-95734933D01*
X137491196Y-95734933D01*
X137560038Y-95731142D01*
X137596343Y-95722233D01*
X137610957Y-95712269D01*
X137621637Y-95694405D01*
X137626018Y-95664689D01*
X137626018Y-95647397D01*
X137737393Y-95647397D01*
X137737393Y-95988164D01*
X137626018Y-95988164D01*
X137617579Y-95945928D01*
X137598907Y-95927103D01*
X137563840Y-95917384D01*
X137491196Y-95913133D01*
X136690507Y-95913133D01*
X136620041Y-95917078D01*
X136583804Y-95926273D01*
X136569664Y-95936548D01*
X136559079Y-95955642D01*
X136554678Y-95988164D01*
X136446234Y-95988164D01*
X136371587Y-95752030D01*
X136444681Y-95743881D01*
X136517858Y-95741186D01*
X136452487Y-95700311D01*
X136407949Y-95658974D01*
X136391346Y-95632058D01*
X136523995Y-95632058D01*
X136533976Y-95662294D01*
X136565485Y-95692484D01*
X136610177Y-95718106D01*
X136656893Y-95734933D01*
X137035073Y-95734933D01*
X137073443Y-95712218D01*
X137100011Y-95689211D01*
X137116470Y-95664521D01*
X137121901Y-95639092D01*
X137113417Y-95608386D01*
X137089363Y-95584405D01*
X137048903Y-95565478D01*
X136997866Y-95552938D01*
X136926748Y-95544360D01*
X136829634Y-95541102D01*
X136727356Y-95544177D01*
X136652987Y-95552228D01*
X136600198Y-95563866D01*
X136557347Y-95581848D01*
X136532576Y-95604099D01*
X136523995Y-95632058D01*
X136391346Y-95632058D01*
X136380675Y-95614760D01*
X136371587Y-95568506D01*
X136379289Y-95525610D01*
X136401874Y-95486556D01*
X136439490Y-95450480D01*
X136493495Y-95416782D01*
X136557806Y-95389576D01*
X136631264Y-95369963D01*
X136715624Y-95357788D01*
X136813239Y-95353524D01*
X136913765Y-95357960D01*
G37*
G36*
X136817086Y-95072156D02*
G01*
X136927406Y-95068169D01*
X137008670Y-95057622D01*
X137067496Y-95042065D01*
X137113595Y-95018917D01*
X137141354Y-94989465D01*
X137151210Y-94951646D01*
X137144186Y-94921586D01*
X137122792Y-94892391D01*
X137085320Y-94863329D01*
X137028570Y-94833921D01*
X137085814Y-94783119D01*
X137137460Y-94806150D01*
X137183900Y-94835587D01*
X137225216Y-94872365D01*
X137255476Y-94912002D01*
X137273880Y-94954637D01*
X137280170Y-95000886D01*
X137272132Y-95053968D01*
X137248754Y-95101923D01*
X137210418Y-95145672D01*
X137156523Y-95185924D01*
X137089824Y-95219346D01*
X137013325Y-95243105D01*
X136925076Y-95257741D01*
X136822215Y-95262861D01*
X136719121Y-95257846D01*
X136631523Y-95243579D01*
X136556424Y-95220560D01*
X136491755Y-95188367D01*
X136439376Y-95149404D01*
X136402121Y-95107032D01*
X136379401Y-95060562D01*
X136371587Y-95009092D01*
X136372181Y-95004940D01*
X136485343Y-95004940D01*
X136491696Y-95025771D01*
X136510020Y-95042348D01*
X136541672Y-95055743D01*
X136605947Y-95067793D01*
X136711573Y-95072693D01*
X136711573Y-94937725D01*
X136615890Y-94941608D01*
X136553489Y-94951406D01*
X136514708Y-94965232D01*
X136492855Y-94982675D01*
X136485343Y-95004940D01*
X136372181Y-95004940D01*
X136379055Y-94956905D01*
X136400412Y-94911420D01*
X136434777Y-94871513D01*
X136482229Y-94836315D01*
X136541467Y-94807981D01*
X136614811Y-94787080D01*
X136705310Y-94773719D01*
X136817086Y-94768904D01*
X136817086Y-95072156D01*
G37*
G36*
X136583712Y-94457836D02*
G01*
X136515999Y-94434563D01*
X136463730Y-94410470D01*
X136424618Y-94385540D01*
X136395023Y-94357435D01*
X136377492Y-94327866D01*
X136371587Y-94296245D01*
X136378255Y-94266584D01*
X136396791Y-94243568D01*
X136426725Y-94225610D01*
X136484939Y-94207368D01*
X136546618Y-94201479D01*
X136603594Y-94206327D01*
X136650757Y-94220481D01*
X136674451Y-94234547D01*
X136688876Y-94251936D01*
X136693988Y-94273677D01*
X136690401Y-94291024D01*
X136680615Y-94304061D01*
X136662677Y-94316356D01*
X136624928Y-94335519D01*
X136593334Y-94356590D01*
X136583712Y-94377871D01*
X136592017Y-94398658D01*
X136617315Y-94416014D01*
X136664678Y-94430823D01*
X136720047Y-94439758D01*
X136798830Y-94446043D01*
X136907578Y-94448457D01*
X136998162Y-94448457D01*
X137066967Y-94444853D01*
X137103583Y-94436392D01*
X137118425Y-94426803D01*
X137129206Y-94409559D01*
X137133625Y-94380802D01*
X137133625Y-94370300D01*
X137245000Y-94370300D01*
X137245000Y-94701688D01*
X137133625Y-94701688D01*
X137129144Y-94668952D01*
X137118392Y-94649847D01*
X137104041Y-94639651D01*
X137067593Y-94630536D01*
X136998162Y-94626657D01*
X136706810Y-94626657D01*
X136636511Y-94630588D01*
X136600382Y-94639748D01*
X136586306Y-94649965D01*
X136575746Y-94669054D01*
X136571347Y-94701688D01*
X136462171Y-94701688D01*
X136371587Y-94474152D01*
X136461111Y-94462326D01*
X136583712Y-94457836D01*
G37*
G36*
X137124212Y-93574707D02*
G01*
X137174395Y-93587925D01*
X137212851Y-93609630D01*
X137240001Y-93637138D01*
X137256745Y-93668485D01*
X137262585Y-93704542D01*
X137254377Y-93754885D01*
X137232331Y-93792439D01*
X137198797Y-93820181D01*
X137153866Y-93840146D01*
X137201772Y-93881400D01*
X137235382Y-93923628D01*
X137255723Y-93967924D01*
X137262585Y-94014682D01*
X137255754Y-94055729D01*
X137237388Y-94086374D01*
X137209371Y-94109057D01*
X137170666Y-94126645D01*
X137127180Y-94136984D01*
X137077205Y-94140516D01*
X137025062Y-94136885D01*
X136975565Y-94125897D01*
X136927324Y-94106694D01*
X136879551Y-94077550D01*
X136828426Y-94032819D01*
X136765573Y-93960092D01*
X136689042Y-93849769D01*
X136804263Y-93849769D01*
X136867132Y-93917693D01*
X136912341Y-93948590D01*
X136962970Y-93966264D01*
X137012083Y-93971695D01*
X137049184Y-93968325D01*
X137082609Y-93958115D01*
X137106030Y-93942395D01*
X137113933Y-93922163D01*
X137109616Y-93903052D01*
X137096530Y-93884598D01*
X137075567Y-93867346D01*
X137045056Y-93849769D01*
X136804263Y-93849769D01*
X136689042Y-93849769D01*
X136612838Y-93849769D01*
X136560378Y-93852663D01*
X136527704Y-93859942D01*
X136508516Y-93870579D01*
X136491375Y-93892803D01*
X136485343Y-93919867D01*
X136492552Y-93953273D01*
X136511258Y-93975272D01*
X136539721Y-93989213D01*
X136579957Y-93996510D01*
X136638588Y-94005367D01*
X136674112Y-94018443D01*
X136695255Y-94037961D01*
X136703422Y-94069295D01*
X136695183Y-94098043D01*
X136672372Y-94118876D01*
X136638051Y-94132734D01*
X136599282Y-94137194D01*
X136556459Y-94133508D01*
X136516136Y-94122204D01*
X136476814Y-94101831D01*
X136437991Y-94069685D01*
X136403098Y-94023235D01*
X136380055Y-93963984D01*
X136371587Y-93888995D01*
X136375546Y-93828428D01*
X136385967Y-93783335D01*
X136407330Y-93743730D01*
X136439273Y-93714654D01*
X136480881Y-93692287D01*
X136521338Y-93680069D01*
X136568425Y-93673971D01*
X136638209Y-93671570D01*
X137027837Y-93671570D01*
X137082109Y-93667561D01*
X137107853Y-93658131D01*
X137116039Y-93643775D01*
X137110062Y-93630095D01*
X137092263Y-93620131D01*
X137058428Y-93613293D01*
X137058428Y-93569965D01*
X137124212Y-93574707D01*
G37*
G36*
X137124212Y-92664951D02*
G01*
X137174395Y-92678169D01*
X137212851Y-92699874D01*
X137240001Y-92727382D01*
X137256745Y-92758729D01*
X137262585Y-92794787D01*
X137254377Y-92845129D01*
X137232331Y-92882683D01*
X137198797Y-92910425D01*
X137153866Y-92930390D01*
X137201772Y-92971644D01*
X137235382Y-93013872D01*
X137255723Y-93058168D01*
X137262585Y-93104926D01*
X137255754Y-93145973D01*
X137237388Y-93176618D01*
X137209371Y-93199302D01*
X137170666Y-93216890D01*
X137127180Y-93227229D01*
X137077205Y-93230760D01*
X137025062Y-93227129D01*
X136975565Y-93216142D01*
X136927324Y-93196938D01*
X136879551Y-93167794D01*
X136828426Y-93123064D01*
X136765573Y-93050336D01*
X136689042Y-92940013D01*
X136804263Y-92940013D01*
X136867132Y-93007938D01*
X136912341Y-93038834D01*
X136962970Y-93056508D01*
X137012083Y-93061939D01*
X137049184Y-93058570D01*
X137082609Y-93048360D01*
X137106030Y-93032640D01*
X137113933Y-93012407D01*
X137109616Y-92993296D01*
X137096530Y-92974842D01*
X137075567Y-92957590D01*
X137045056Y-92940013D01*
X136804263Y-92940013D01*
X136689042Y-92940013D01*
X136612838Y-92940013D01*
X136560378Y-92942907D01*
X136527704Y-92950186D01*
X136508516Y-92960823D01*
X136491375Y-92983048D01*
X136485343Y-93010111D01*
X136492552Y-93043517D01*
X136511258Y-93065516D01*
X136539721Y-93079458D01*
X136579957Y-93086755D01*
X136638588Y-93095611D01*
X136674112Y-93108688D01*
X136695255Y-93128205D01*
X136703422Y-93159539D01*
X136695183Y-93188287D01*
X136672372Y-93209120D01*
X136638051Y-93222978D01*
X136599282Y-93227438D01*
X136556459Y-93223752D01*
X136516136Y-93212449D01*
X136476814Y-93192075D01*
X136437991Y-93159930D01*
X136403098Y-93113479D01*
X136380055Y-93054228D01*
X136371587Y-92979239D01*
X136375546Y-92918673D01*
X136385967Y-92873579D01*
X136407330Y-92833974D01*
X136439273Y-92804898D01*
X136480881Y-92782531D01*
X136521338Y-92770314D01*
X136568425Y-92764215D01*
X136638209Y-92761814D01*
X137027837Y-92761814D01*
X137082109Y-92757805D01*
X137107853Y-92748375D01*
X137116039Y-92734019D01*
X137110062Y-92720339D01*
X137092263Y-92710375D01*
X137058428Y-92703538D01*
X137058428Y-92660209D01*
X137124212Y-92664951D01*
G37*
G36*
X137239266Y-92131907D02*
G01*
X137262585Y-92221793D01*
X137205081Y-92231415D01*
X137126572Y-92235031D01*
X137186520Y-92274933D01*
X137228330Y-92315924D01*
X137253981Y-92359722D01*
X137262585Y-92406050D01*
X137255645Y-92448997D01*
X137235588Y-92487066D01*
X137202811Y-92521167D01*
X137156706Y-92551960D01*
X137100791Y-92576119D01*
X137030622Y-92594226D01*
X136943030Y-92605938D01*
X136833939Y-92610188D01*
X136712923Y-92605373D01*
X136617155Y-92592180D01*
X136541652Y-92571887D01*
X136482595Y-92544877D01*
X136433825Y-92510492D01*
X136399470Y-92473583D01*
X136378692Y-92433572D01*
X136371587Y-92389685D01*
X136378729Y-92341825D01*
X136385344Y-92328576D01*
X136518133Y-92328576D01*
X136526314Y-92357815D01*
X136549597Y-92380809D01*
X136588933Y-92399113D01*
X136638310Y-92411180D01*
X136707483Y-92419459D01*
X136802340Y-92422609D01*
X136905172Y-92419719D01*
X136980057Y-92412157D01*
X137033241Y-92401263D01*
X137076877Y-92384153D01*
X137101678Y-92363223D01*
X137110177Y-92337173D01*
X137101962Y-92308577D01*
X137075831Y-92278555D01*
X137035648Y-92252827D01*
X136984972Y-92235031D01*
X136603312Y-92235031D01*
X136564712Y-92259040D01*
X136539107Y-92281828D01*
X136523232Y-92305588D01*
X136518133Y-92328576D01*
X136385344Y-92328576D01*
X136398881Y-92301465D01*
X136433136Y-92265401D01*
X136480764Y-92235031D01*
X136149387Y-92235031D01*
X136079476Y-92238858D01*
X136043325Y-92247780D01*
X136029000Y-92257760D01*
X136018399Y-92276053D01*
X136014016Y-92306936D01*
X135904289Y-92306936D01*
X135828452Y-92056831D01*
X136968669Y-92056831D01*
X137026667Y-92054530D01*
X137061535Y-92048935D01*
X137080960Y-92041346D01*
X137098415Y-92021725D01*
X137106056Y-91981800D01*
X137221644Y-91981800D01*
X137239266Y-92131907D01*
G37*
G36*
X137124212Y-91067407D02*
G01*
X137174395Y-91080625D01*
X137212851Y-91102330D01*
X137240001Y-91129838D01*
X137256745Y-91161186D01*
X137262585Y-91197243D01*
X137254377Y-91247585D01*
X137232331Y-91285140D01*
X137198797Y-91312881D01*
X137153866Y-91332847D01*
X137201772Y-91374100D01*
X137235382Y-91416329D01*
X137255723Y-91460625D01*
X137262585Y-91507383D01*
X137255754Y-91548430D01*
X137237388Y-91579075D01*
X137209371Y-91601758D01*
X137170666Y-91619346D01*
X137127180Y-91629685D01*
X137077205Y-91633217D01*
X137025062Y-91629586D01*
X136975565Y-91618598D01*
X136927324Y-91599395D01*
X136879551Y-91570251D01*
X136828426Y-91525520D01*
X136765573Y-91452792D01*
X136689042Y-91342470D01*
X136804263Y-91342470D01*
X136867132Y-91410394D01*
X136912341Y-91441290D01*
X136962970Y-91458965D01*
X137012083Y-91464396D01*
X137049184Y-91461026D01*
X137082609Y-91450816D01*
X137106030Y-91435096D01*
X137113933Y-91414863D01*
X137109616Y-91395752D01*
X137096530Y-91377299D01*
X137075567Y-91360047D01*
X137045056Y-91342470D01*
X136804263Y-91342470D01*
X136689042Y-91342470D01*
X136612838Y-91342470D01*
X136560378Y-91345364D01*
X136527704Y-91352642D01*
X136508516Y-91363279D01*
X136491375Y-91385504D01*
X136485343Y-91412568D01*
X136492552Y-91445973D01*
X136511258Y-91467972D01*
X136539721Y-91481914D01*
X136579957Y-91489211D01*
X136638588Y-91498067D01*
X136674112Y-91511144D01*
X136695255Y-91530661D01*
X136703422Y-91561995D01*
X136695183Y-91590744D01*
X136672372Y-91611577D01*
X136638051Y-91625434D01*
X136599282Y-91629895D01*
X136556459Y-91626209D01*
X136516136Y-91614905D01*
X136476814Y-91594531D01*
X136437991Y-91562386D01*
X136403098Y-91515936D01*
X136380055Y-91456685D01*
X136371587Y-91381695D01*
X136375546Y-91321129D01*
X136385967Y-91276036D01*
X136407330Y-91236431D01*
X136439273Y-91207355D01*
X136480881Y-91184987D01*
X136521338Y-91172770D01*
X136568425Y-91166672D01*
X136638209Y-91164270D01*
X137027837Y-91164270D01*
X137082109Y-91160262D01*
X137107853Y-91150831D01*
X137116039Y-91136475D01*
X137110062Y-91122796D01*
X137092263Y-91112831D01*
X137058428Y-91105994D01*
X137058428Y-91062665D01*
X137124212Y-91067407D01*
G37*
G36*
X137280170Y-91003461D02*
G01*
X136998803Y-91003461D01*
X136998803Y-90951242D01*
X137062430Y-90931168D01*
X137110511Y-90906223D01*
X137145154Y-90875962D01*
X137166902Y-90839290D01*
X137174658Y-90794584D01*
X137166356Y-90749487D01*
X137143883Y-90715645D01*
X137119960Y-90696778D01*
X137097066Y-90687275D01*
X137074091Y-90684382D01*
X137044292Y-90688539D01*
X137021700Y-90701381D01*
X137005509Y-90724520D01*
X136980576Y-90779783D01*
X136942579Y-90867648D01*
X136912249Y-90919099D01*
X136886427Y-90947463D01*
X136853342Y-90971420D01*
X136812690Y-90991493D01*
X136765667Y-91006729D01*
X136714908Y-91015810D01*
X136659183Y-91018897D01*
X136597525Y-91015340D01*
X136543322Y-91005007D01*
X136494879Y-90987823D01*
X136451180Y-90962965D01*
X136408600Y-90923555D01*
X136381410Y-90874469D01*
X136371587Y-90813244D01*
X136377457Y-90765506D01*
X136395395Y-90716498D01*
X136426175Y-90665819D01*
X136400359Y-90654053D01*
X136371587Y-90645059D01*
X136371587Y-90599727D01*
X136623646Y-90594842D01*
X136623646Y-90638513D01*
X136570971Y-90657678D01*
X136529608Y-90682811D01*
X136498635Y-90714859D01*
X136478555Y-90755409D01*
X136471238Y-90806552D01*
X136478062Y-90845335D01*
X136496334Y-90873866D01*
X136516088Y-90889316D01*
X136537112Y-90897481D01*
X136560356Y-90900097D01*
X136595513Y-90894898D01*
X136620715Y-90878799D01*
X136639061Y-90850382D01*
X136669899Y-90776999D01*
X136704414Y-90698300D01*
X136734379Y-90650383D01*
X136775324Y-90612086D01*
X136830184Y-90583656D01*
X136874021Y-90570221D01*
X136922257Y-90562112D01*
X136976088Y-90559330D01*
X137039895Y-90563276D01*
X137096622Y-90574836D01*
X137148051Y-90594294D01*
X137195174Y-90622833D01*
X137241363Y-90667153D01*
X137270067Y-90718905D01*
X137280170Y-90779832D01*
X137274115Y-90827134D01*
X137255387Y-90876953D01*
X137222834Y-90929797D01*
X137246910Y-90942512D01*
X137280170Y-90951779D01*
X137280170Y-91003461D01*
G37*
G36*
X136518133Y-90254515D02*
G01*
X136953923Y-90254515D01*
X137053992Y-90252052D01*
X137098454Y-90246845D01*
X137124402Y-90235477D01*
X137133625Y-90215191D01*
X137125191Y-90193734D01*
X137099070Y-90174716D01*
X137049911Y-90157257D01*
X137083616Y-90103670D01*
X137153605Y-90123836D01*
X137207022Y-90150593D01*
X137246114Y-90184643D01*
X137271109Y-90227614D01*
X137280170Y-90281870D01*
X137271530Y-90330708D01*
X137248157Y-90367439D01*
X137212118Y-90394905D01*
X137162199Y-90415039D01*
X137095770Y-90427960D01*
X137007687Y-90432714D01*
X136518133Y-90432714D01*
X136518133Y-90498367D01*
X136406758Y-90498367D01*
X136406758Y-90484591D01*
X136397798Y-90441792D01*
X136371735Y-90404209D01*
X136328265Y-90370628D01*
X136271205Y-90343239D01*
X136205205Y-90324277D01*
X136128321Y-90313377D01*
X136128321Y-90254515D01*
X136404377Y-90254515D01*
X136404377Y-90120083D01*
X136518133Y-90120083D01*
X136518133Y-90254515D01*
G37*
G36*
X136583712Y-89840279D02*
G01*
X136515999Y-89817006D01*
X136463730Y-89792913D01*
X136424618Y-89767983D01*
X136395023Y-89739877D01*
X136377492Y-89710309D01*
X136371587Y-89678688D01*
X136378255Y-89649027D01*
X136396791Y-89626010D01*
X136426725Y-89608053D01*
X136484939Y-89589811D01*
X136546618Y-89583921D01*
X136603594Y-89588770D01*
X136650757Y-89602923D01*
X136674451Y-89616990D01*
X136688876Y-89634378D01*
X136693988Y-89656120D01*
X136690401Y-89673466D01*
X136680615Y-89686503D01*
X136662677Y-89698798D01*
X136624928Y-89717962D01*
X136593334Y-89739033D01*
X136583712Y-89760314D01*
X136592017Y-89781101D01*
X136617315Y-89798457D01*
X136664678Y-89813265D01*
X136720047Y-89822200D01*
X136798830Y-89828485D01*
X136907578Y-89830900D01*
X136998162Y-89830900D01*
X137066967Y-89827296D01*
X137103583Y-89818834D01*
X137118425Y-89809246D01*
X137129206Y-89792001D01*
X137133625Y-89763244D01*
X137133625Y-89752742D01*
X137245000Y-89752742D01*
X137245000Y-90084131D01*
X137133625Y-90084131D01*
X137129144Y-90051395D01*
X137118392Y-90032289D01*
X137104041Y-90022093D01*
X137067593Y-90012979D01*
X136998162Y-90009099D01*
X136706810Y-90009099D01*
X136636511Y-90013030D01*
X136600382Y-90022191D01*
X136586306Y-90032408D01*
X136575746Y-90051497D01*
X136571347Y-90084131D01*
X136462171Y-90084131D01*
X136371587Y-89856594D01*
X136461111Y-89844768D01*
X136583712Y-89840279D01*
G37*
G36*
X137124212Y-88957149D02*
G01*
X137174395Y-88970367D01*
X137212851Y-88992072D01*
X137240001Y-89019580D01*
X137256745Y-89050927D01*
X137262585Y-89086985D01*
X137254377Y-89137327D01*
X137232331Y-89174881D01*
X137198797Y-89202623D01*
X137153866Y-89222588D01*
X137201772Y-89263842D01*
X137235382Y-89306071D01*
X137255723Y-89350366D01*
X137262585Y-89397124D01*
X137255754Y-89438171D01*
X137237388Y-89468816D01*
X137209371Y-89491500D01*
X137170666Y-89509088D01*
X137127180Y-89519427D01*
X137077205Y-89522958D01*
X137025062Y-89519327D01*
X136975565Y-89508340D01*
X136927324Y-89489136D01*
X136879551Y-89459993D01*
X136828426Y-89415262D01*
X136765573Y-89342534D01*
X136689042Y-89232212D01*
X136804263Y-89232212D01*
X136867132Y-89300136D01*
X136912341Y-89331032D01*
X136962970Y-89348706D01*
X137012083Y-89354138D01*
X137049184Y-89350768D01*
X137082609Y-89340558D01*
X137106030Y-89324838D01*
X137113933Y-89304605D01*
X137109616Y-89285494D01*
X137096530Y-89267041D01*
X137075567Y-89249788D01*
X137045056Y-89232212D01*
X136804263Y-89232212D01*
X136689042Y-89232212D01*
X136612838Y-89232212D01*
X136560378Y-89235105D01*
X136527704Y-89242384D01*
X136508516Y-89253021D01*
X136491375Y-89275246D01*
X136485343Y-89302309D01*
X136492552Y-89335715D01*
X136511258Y-89357714D01*
X136539721Y-89371656D01*
X136579957Y-89378953D01*
X136638588Y-89387809D01*
X136674112Y-89400886D01*
X136695255Y-89420403D01*
X136703422Y-89451737D01*
X136695183Y-89480485D01*
X136672372Y-89501318D01*
X136638051Y-89515176D01*
X136599282Y-89519637D01*
X136556459Y-89515950D01*
X136516136Y-89504647D01*
X136476814Y-89484273D01*
X136437991Y-89452128D01*
X136403098Y-89405677D01*
X136380055Y-89346426D01*
X136371587Y-89271437D01*
X136375546Y-89210871D01*
X136385967Y-89165778D01*
X136407330Y-89126172D01*
X136439273Y-89097096D01*
X136480881Y-89074729D01*
X136521338Y-89062512D01*
X136568425Y-89056413D01*
X136638209Y-89054012D01*
X137027837Y-89054012D01*
X137082109Y-89050003D01*
X137107853Y-89040573D01*
X137116039Y-89026217D01*
X137110062Y-89012538D01*
X137092263Y-89002573D01*
X137058428Y-88995736D01*
X137058428Y-88952407D01*
X137124212Y-88957149D01*
G37*
G36*
X136354002Y-88309316D02*
G01*
X136354002Y-88267745D01*
X136457777Y-88271285D01*
X136540652Y-88280982D01*
X136606468Y-88295799D01*
X136658359Y-88315226D01*
X136702475Y-88340734D01*
X136733347Y-88368799D01*
X136752034Y-88399978D01*
X136758468Y-88435101D01*
X136753615Y-88470769D01*
X136738684Y-88507836D01*
X136710028Y-88552039D01*
X136640590Y-88642512D01*
X136594165Y-88711106D01*
X136582613Y-88749490D01*
X136589611Y-88777569D01*
X136609268Y-88799502D01*
X136641700Y-88816806D01*
X136689747Y-88829978D01*
X136758468Y-88838394D01*
X136758468Y-88880502D01*
X136650438Y-88876919D01*
X136565999Y-88867207D01*
X136500607Y-88852547D01*
X136450539Y-88833558D01*
X136396695Y-88799488D01*
X136364901Y-88760923D01*
X136354002Y-88716322D01*
X136363505Y-88669896D01*
X136397997Y-88601915D01*
X136468124Y-88505394D01*
X136517971Y-88434186D01*
X136529856Y-88397780D01*
X136524106Y-88373311D01*
X136507647Y-88353027D01*
X136480306Y-88335938D01*
X136425171Y-88317867D01*
X136354002Y-88309316D01*
G37*
D12*
X130119047Y-86933609D02*
X130261904Y-86981228D01*
X130261904Y-86981228D02*
X130309523Y-87028847D01*
X130309523Y-87028847D02*
X130357142Y-87124085D01*
X130357142Y-87124085D02*
X130357142Y-87266942D01*
X130357142Y-87266942D02*
X130309523Y-87362180D01*
X130309523Y-87362180D02*
X130261904Y-87409800D01*
X130261904Y-87409800D02*
X130166666Y-87457419D01*
X130166666Y-87457419D02*
X129785714Y-87457419D01*
X129785714Y-87457419D02*
X129785714Y-86457419D01*
X129785714Y-86457419D02*
X130119047Y-86457419D01*
X130119047Y-86457419D02*
X130214285Y-86505038D01*
X130214285Y-86505038D02*
X130261904Y-86552657D01*
X130261904Y-86552657D02*
X130309523Y-86647895D01*
X130309523Y-86647895D02*
X130309523Y-86743133D01*
X130309523Y-86743133D02*
X130261904Y-86838371D01*
X130261904Y-86838371D02*
X130214285Y-86885990D01*
X130214285Y-86885990D02*
X130119047Y-86933609D01*
X130119047Y-86933609D02*
X129785714Y-86933609D01*
X130690476Y-86457419D02*
X131357142Y-86457419D01*
X131357142Y-86457419D02*
X130690476Y-87457419D01*
X130690476Y-87457419D02*
X131357142Y-87457419D01*
X132261904Y-87457419D02*
X131690476Y-87457419D01*
X131976190Y-87457419D02*
X131976190Y-86457419D01*
X131976190Y-86457419D02*
X131880952Y-86600276D01*
X131880952Y-86600276D02*
X131785714Y-86695514D01*
X131785714Y-86695514D02*
X131690476Y-86743133D01*
D13*
X124714285Y-85551009D02*
X124857142Y-85598628D01*
X124857142Y-85598628D02*
X124904761Y-85646247D01*
X124904761Y-85646247D02*
X124952380Y-85741485D01*
X124952380Y-85741485D02*
X124952380Y-85884342D01*
X124952380Y-85884342D02*
X124904761Y-85979580D01*
X124904761Y-85979580D02*
X124857142Y-86027200D01*
X124857142Y-86027200D02*
X124761904Y-86074819D01*
X124761904Y-86074819D02*
X124380952Y-86074819D01*
X124380952Y-86074819D02*
X124380952Y-85074819D01*
X124380952Y-85074819D02*
X124714285Y-85074819D01*
X124714285Y-85074819D02*
X124809523Y-85122438D01*
X124809523Y-85122438D02*
X124857142Y-85170057D01*
X124857142Y-85170057D02*
X124904761Y-85265295D01*
X124904761Y-85265295D02*
X124904761Y-85360533D01*
X124904761Y-85360533D02*
X124857142Y-85455771D01*
X124857142Y-85455771D02*
X124809523Y-85503390D01*
X124809523Y-85503390D02*
X124714285Y-85551009D01*
X124714285Y-85551009D02*
X124380952Y-85551009D01*
X125238095Y-85074819D02*
X125809523Y-85074819D01*
X125523809Y-86074819D02*
X125523809Y-85074819D01*
X126666666Y-86074819D02*
X126095238Y-86074819D01*
X126380952Y-86074819D02*
X126380952Y-85074819D01*
X126380952Y-85074819D02*
X126285714Y-85217676D01*
X126285714Y-85217676D02*
X126190476Y-85312914D01*
X126190476Y-85312914D02*
X126095238Y-85360533D01*
X115954819Y-83833333D02*
X116669104Y-83833333D01*
X116669104Y-83833333D02*
X116811961Y-83880952D01*
X116811961Y-83880952D02*
X116907200Y-83976190D01*
X116907200Y-83976190D02*
X116954819Y-84119047D01*
X116954819Y-84119047D02*
X116954819Y-84214285D01*
X116954819Y-82833333D02*
X116954819Y-83404761D01*
X116954819Y-83119047D02*
X115954819Y-83119047D01*
X115954819Y-83119047D02*
X116097676Y-83214285D01*
X116097676Y-83214285D02*
X116192914Y-83309523D01*
X116192914Y-83309523D02*
X116240533Y-83404761D01*
%TO.C,BT1*%
D14*
X124120000Y-86620000D02*
X125500000Y-86620000D01*
X124120000Y-88000000D02*
X124120000Y-86620000D01*
X124120000Y-89270000D02*
X124120000Y-91920000D01*
X124120000Y-89270000D02*
X126880000Y-89270000D01*
X124120000Y-91920000D02*
X126880000Y-91920000D01*
X126880000Y-89270000D02*
X126880000Y-91920000D01*
%TO.C,J1*%
X117500000Y-84880000D02*
X117500000Y-83500000D01*
X118880000Y-84880000D02*
X117500000Y-84880000D01*
X120150000Y-82120000D02*
X138040000Y-82120000D01*
X120150000Y-84880000D02*
X120150000Y-82120000D01*
X120150000Y-84880000D02*
X138040000Y-84880000D01*
X138040000Y-84880000D02*
X138040000Y-82120000D01*
%TD*%
M02*
