%TF.GenerationSoftware,KiCad,Pcbnew,10.0.6*%
%TF.CreationDate,2026-10-03T00:37:54-07:00*%
%TF.ProjectId,flight_tracker_pendant,666c6967-6874-45f7-9472-61636b65725f,rev?*%
%TF.SameCoordinates,Original*%
%TF.FileFunction,Copper,L1,Top*%
%TF.FilePolarity,Positive*%
%FSLAX46Y46*%
G04 Gerber Fmt 4.6, Leading zero omitted, Abs format (unit mm)*
G04 Created by KiCad (PCBNEW 10.0.6) date 2026-10-03 00:37:54*
%MOMM*%
%LPD*%
G01*
G04 APERTURE LIST*
%TA.AperFunction,SMDPad,CuDef*%
%ADD10R,1.200000X1.400000*%
%TD*%
%TA.AperFunction,ComponentPad*%
%ADD11R,1.700000X1.700000*%
%TD*%
%TA.AperFunction,ComponentPad*%
%ADD12C,1.700000*%
%TD*%
%TA.AperFunction,ViaPad*%
%ADD13C,0.600000*%
%TD*%
%TA.AperFunction,Conductor*%
%ADD14C,0.200000*%
%TD*%
G04 APERTURE END LIST*
D10*
%TO.P,BZ1,1,+_1*%
%TO.N,Net-(BZ1-+)*%
X129400000Y-87500000D03*
%TO.P,BZ1,2,-_2*%
%TO.N,GND*%
X132600000Y-87500000D03*
%TD*%
D11*
%TO.P,BT1,1,+_1*%
%TO.N,Net-(BT1-+)*%
X125500000Y-88000000D03*
D12*
%TO.P,BT1,2,-_2*%
%TO.N,GND*%
X125500000Y-90540000D03*
%TD*%
D11*
%TO.P,J1,1,Pin_1_1*%
%TO.N,/VCC*%
X118880000Y-83500000D03*
D12*
%TO.P,J1,2,Pin_2_2*%
%TO.N,GND*%
X121420000Y-83500000D03*
%TO.P,J1,3,Pin_3_3*%
%TO.N,/DIN*%
X123960000Y-83500000D03*
%TO.P,J1,4,Pin_4_4*%
%TO.N,/CLK*%
X126500000Y-83500000D03*
%TO.P,J1,5,Pin_5_5*%
%TO.N,/CS*%
X129040000Y-83500000D03*
%TO.P,J1,6,Pin_6_6*%
%TO.N,/DC*%
X131580000Y-83500000D03*
%TO.P,J1,7,Pin_7_7*%
%TO.N,/RST*%
X134120000Y-83500000D03*
%TO.P,J1,8,Pin_8_8*%
%TO.N,/BL*%
X136660000Y-83500000D03*
%TD*%
D13*
%TO.N,GND*%
X130500000Y-99000000D03*
%TO.N,Net-(BT1-+)*%
X127272512Y-95772514D03*
%TO.N,Net-(BZ1-+)*%
X122180000Y-86500000D03*
%TO.N,/BL*%
X134000000Y-85000000D03*
X130500000Y-90920000D03*
%TO.N,/VCC*%
X135420260Y-82965629D03*
X138500000Y-85500000D03*
%TD*%
%TO.N,GND*%
D14*
X129900000Y-98400000D02*
X130500000Y-99000000D01*
X129900000Y-90200000D02*
X129900000Y-98400000D01*
X132600000Y-87500000D02*
X129900000Y-90200000D01*
%TO.N,Net-(BT1-+)*%
X127272512Y-95772514D02*
X127272512Y-89772512D01*
X127272512Y-89772512D02*
X125500000Y-88000000D01*
%TO.N,Net-(BZ1-+)*%
X122180000Y-86500000D02*
X122680000Y-86000000D01*
X127900000Y-86000000D02*
X129400000Y-87500000D01*
X122680000Y-86000000D02*
X127900000Y-86000000D01*
%TO.N,/BL*%
X131080000Y-90920000D02*
X134000000Y-88000000D01*
X134000000Y-88000000D02*
X134000000Y-85000000D01*
X130500000Y-90920000D02*
X131080000Y-90920000D01*
%TO.N,/VCC*%
X138500000Y-85500000D02*
X137033654Y-85500000D01*
X134596346Y-82350000D02*
X120030000Y-82350000D01*
X137033654Y-85500000D02*
X135420260Y-83886606D01*
X120030000Y-82350000D02*
X118880000Y-83500000D01*
X135420260Y-83886606D02*
X135420260Y-83173914D01*
X135420260Y-83173914D02*
X134596346Y-82350000D01*
%TD*%
%TA.AperFunction,Conductor*%
%TO.N,GND*%
G36*
X117442694Y-82863347D02*
G01*
X117500742Y-82902233D01*
X117528552Y-82966330D01*
X117529500Y-82981637D01*
X117529500Y-84397870D01*
X117529501Y-84397876D01*
X117535908Y-84457483D01*
X117586202Y-84592328D01*
X117586206Y-84592335D01*
X117672452Y-84707544D01*
X117672455Y-84707547D01*
X117787664Y-84793793D01*
X117787671Y-84793797D01*
X117922517Y-84844091D01*
X117922516Y-84844091D01*
X117929444Y-84844835D01*
X117982127Y-84850500D01*
X119777872Y-84850499D01*
X119837483Y-84844091D01*
X119972331Y-84793796D01*
X120087546Y-84707546D01*
X120173796Y-84592331D01*
X120224091Y-84457483D01*
X120230500Y-84397873D01*
X120230499Y-84373979D01*
X120233330Y-84360963D01*
X120243940Y-84341525D01*
X120250179Y-84320275D01*
X120266803Y-84299643D01*
X120266808Y-84299636D01*
X120266811Y-84299634D01*
X120266818Y-84299626D01*
X120937036Y-83629407D01*
X120954075Y-83692993D01*
X121019901Y-83807007D01*
X121112993Y-83900099D01*
X121227007Y-83965925D01*
X121290590Y-83982962D01*
X120658282Y-84615269D01*
X120658282Y-84615270D01*
X120712449Y-84654624D01*
X120901782Y-84751095D01*
X121103870Y-84816757D01*
X121313754Y-84850000D01*
X121526246Y-84850000D01*
X121736127Y-84816757D01*
X121736130Y-84816757D01*
X121938217Y-84751095D01*
X122127554Y-84654622D01*
X122181716Y-84615270D01*
X122181717Y-84615270D01*
X121549408Y-83982962D01*
X121612993Y-83965925D01*
X121727007Y-83900099D01*
X121820099Y-83807007D01*
X121885925Y-83692993D01*
X121902962Y-83629409D01*
X122535270Y-84261717D01*
X122535270Y-84261716D01*
X122574622Y-84207555D01*
X122579232Y-84198507D01*
X122627205Y-84147709D01*
X122695025Y-84130912D01*
X122761161Y-84153447D01*
X122800204Y-84198504D01*
X122804949Y-84207817D01*
X122929890Y-84379786D01*
X123080213Y-84530109D01*
X123252179Y-84655048D01*
X123252181Y-84655049D01*
X123252184Y-84655051D01*
X123441588Y-84751557D01*
X123643757Y-84817246D01*
X123853713Y-84850500D01*
X123853714Y-84850500D01*
X124066286Y-84850500D01*
X124066287Y-84850500D01*
X124276243Y-84817246D01*
X124478412Y-84751557D01*
X124667816Y-84655051D01*
X124754138Y-84592335D01*
X124839786Y-84530109D01*
X124839788Y-84530106D01*
X124839792Y-84530104D01*
X124990104Y-84379792D01*
X124990106Y-84379788D01*
X124990109Y-84379786D01*
X125115048Y-84207820D01*
X125115050Y-84207817D01*
X125115051Y-84207816D01*
X125119514Y-84199054D01*
X125167488Y-84148259D01*
X125235308Y-84131463D01*
X125301444Y-84153999D01*
X125340486Y-84199056D01*
X125344951Y-84207820D01*
X125469890Y-84379786D01*
X125620213Y-84530109D01*
X125792179Y-84655048D01*
X125792181Y-84655049D01*
X125792184Y-84655051D01*
X125981588Y-84751557D01*
X126183757Y-84817246D01*
X126393713Y-84850500D01*
X126393714Y-84850500D01*
X126606286Y-84850500D01*
X126606287Y-84850500D01*
X126816243Y-84817246D01*
X127018412Y-84751557D01*
X127207816Y-84655051D01*
X127294138Y-84592335D01*
X127379786Y-84530109D01*
X127379788Y-84530106D01*
X127379792Y-84530104D01*
X127530104Y-84379792D01*
X127530106Y-84379788D01*
X127530109Y-84379786D01*
X127655048Y-84207820D01*
X127655050Y-84207817D01*
X127655051Y-84207816D01*
X127659514Y-84199054D01*
X127707488Y-84148259D01*
X127775308Y-84131463D01*
X127841444Y-84153999D01*
X127880486Y-84199056D01*
X127884951Y-84207820D01*
X128009890Y-84379786D01*
X128160213Y-84530109D01*
X128332179Y-84655048D01*
X128332181Y-84655049D01*
X128332184Y-84655051D01*
X128521588Y-84751557D01*
X128723757Y-84817246D01*
X128933713Y-84850500D01*
X128933714Y-84850500D01*
X129146286Y-84850500D01*
X129146287Y-84850500D01*
X129356243Y-84817246D01*
X129558412Y-84751557D01*
X129747816Y-84655051D01*
X129834138Y-84592335D01*
X129919786Y-84530109D01*
X129919788Y-84530106D01*
X129919792Y-84530104D01*
X130070104Y-84379792D01*
X130070106Y-84379788D01*
X130070109Y-84379786D01*
X130195048Y-84207820D01*
X130195050Y-84207817D01*
X130195051Y-84207816D01*
X130199514Y-84199054D01*
X130247488Y-84148259D01*
X130315308Y-84131463D01*
X130381444Y-84153999D01*
X130420486Y-84199056D01*
X130424951Y-84207820D01*
X130549890Y-84379786D01*
X130700213Y-84530109D01*
X130872179Y-84655048D01*
X130872181Y-84655049D01*
X130872184Y-84655051D01*
X131061588Y-84751557D01*
X131263757Y-84817246D01*
X131473713Y-84850500D01*
X131473714Y-84850500D01*
X131686286Y-84850500D01*
X131686287Y-84850500D01*
X131896243Y-84817246D01*
X132098412Y-84751557D01*
X132287816Y-84655051D01*
X132374138Y-84592335D01*
X132459786Y-84530109D01*
X132459788Y-84530106D01*
X132459792Y-84530104D01*
X132610104Y-84379792D01*
X132610106Y-84379788D01*
X132610109Y-84379786D01*
X132735048Y-84207820D01*
X132735050Y-84207817D01*
X132735051Y-84207816D01*
X132739514Y-84199054D01*
X132787488Y-84148259D01*
X132855308Y-84131463D01*
X132921444Y-84153999D01*
X132960486Y-84199056D01*
X132964951Y-84207820D01*
X133089890Y-84379786D01*
X133243653Y-84533549D01*
X133241969Y-84535232D01*
X133274846Y-84585491D01*
X133275410Y-84655359D01*
X133270716Y-84668838D01*
X133230264Y-84766498D01*
X133230261Y-84766510D01*
X133199500Y-84921153D01*
X133199500Y-85078846D01*
X133230261Y-85233489D01*
X133230264Y-85233501D01*
X133290602Y-85379172D01*
X133290609Y-85379185D01*
X133378602Y-85510874D01*
X133399480Y-85577551D01*
X133399500Y-85579765D01*
X133399500Y-86178260D01*
X133379815Y-86245299D01*
X133327011Y-86291054D01*
X133262245Y-86301550D01*
X133247828Y-86300000D01*
X132850000Y-86300000D01*
X132850000Y-87376000D01*
X132830315Y-87443039D01*
X132777511Y-87488794D01*
X132726000Y-87500000D01*
X132600000Y-87500000D01*
X132600000Y-87626000D01*
X132580315Y-87693039D01*
X132527511Y-87738794D01*
X132476000Y-87750000D01*
X131500000Y-87750000D01*
X131500000Y-88247844D01*
X131506401Y-88307372D01*
X131506403Y-88307379D01*
X131556645Y-88442086D01*
X131556649Y-88442093D01*
X131642809Y-88557187D01*
X131642812Y-88557190D01*
X131757906Y-88643350D01*
X131757913Y-88643354D01*
X131892620Y-88693596D01*
X131892627Y-88693598D01*
X131952155Y-88699999D01*
X131952172Y-88700000D01*
X132151402Y-88700000D01*
X132218441Y-88719685D01*
X132264196Y-88772489D01*
X132274140Y-88841647D01*
X132245115Y-88905203D01*
X132239083Y-88911681D01*
X130980884Y-90169879D01*
X130919561Y-90203364D01*
X130849869Y-90198380D01*
X130845751Y-90196759D01*
X130733501Y-90150264D01*
X130733489Y-90150261D01*
X130578845Y-90119500D01*
X130578842Y-90119500D01*
X130421158Y-90119500D01*
X130421155Y-90119500D01*
X130266510Y-90150261D01*
X130266498Y-90150264D01*
X130120827Y-90210602D01*
X130120814Y-90210609D01*
X129989711Y-90298210D01*
X129989707Y-90298213D01*
X129878213Y-90409707D01*
X129878210Y-90409711D01*
X129790609Y-90540814D01*
X129790602Y-90540827D01*
X129730264Y-90686498D01*
X129730261Y-90686510D01*
X129699500Y-90841153D01*
X129699500Y-90998846D01*
X129730261Y-91153489D01*
X129730264Y-91153501D01*
X129790602Y-91299172D01*
X129790609Y-91299185D01*
X129878210Y-91430288D01*
X129878213Y-91430292D01*
X129989707Y-91541786D01*
X129989711Y-91541789D01*
X130120814Y-91629390D01*
X130120827Y-91629397D01*
X130266498Y-91689735D01*
X130266503Y-91689737D01*
X130421153Y-91720499D01*
X130421156Y-91720500D01*
X130421158Y-91720500D01*
X130578844Y-91720500D01*
X130578845Y-91720499D01*
X130733497Y-91689737D01*
X130879179Y-91629394D01*
X131010289Y-91541789D01*
X131010288Y-91541789D01*
X131010873Y-91541399D01*
X131077550Y-91520521D01*
X131079764Y-91520501D01*
X131159054Y-91520501D01*
X131159057Y-91520501D01*
X131311785Y-91479577D01*
X131361904Y-91450639D01*
X131448716Y-91400520D01*
X131560520Y-91288716D01*
X131560520Y-91288714D01*
X131570728Y-91278507D01*
X131570729Y-91278504D01*
X134480520Y-88368716D01*
X134559577Y-88231784D01*
X134600501Y-88079057D01*
X134600501Y-87920942D01*
X134600501Y-87913347D01*
X134600500Y-87913329D01*
X134600500Y-85579765D01*
X134620185Y-85512726D01*
X134621398Y-85510874D01*
X134709390Y-85379185D01*
X134709390Y-85379184D01*
X134709394Y-85379179D01*
X134769737Y-85233497D01*
X134800500Y-85078842D01*
X134800500Y-84921158D01*
X134800500Y-84921155D01*
X134774531Y-84790606D01*
X134773147Y-84783646D01*
X134779374Y-84714055D01*
X134822237Y-84658878D01*
X134825955Y-84656403D01*
X134999786Y-84530109D01*
X134999788Y-84530106D01*
X134999792Y-84530104D01*
X135019475Y-84510420D01*
X135080796Y-84476934D01*
X135150488Y-84481917D01*
X135194837Y-84510418D01*
X136664938Y-85980520D01*
X136664940Y-85980521D01*
X136664944Y-85980524D01*
X136801863Y-86059573D01*
X136801870Y-86059577D01*
X136954597Y-86100501D01*
X136954599Y-86100501D01*
X137120308Y-86100501D01*
X137120324Y-86100500D01*
X137920234Y-86100500D01*
X137987273Y-86120185D01*
X137989125Y-86121398D01*
X138120814Y-86209390D01*
X138120827Y-86209397D01*
X138250675Y-86263181D01*
X138266503Y-86269737D01*
X138416131Y-86299500D01*
X138421153Y-86300499D01*
X138421156Y-86300500D01*
X138421158Y-86300500D01*
X138578844Y-86300500D01*
X138578845Y-86300499D01*
X138733497Y-86269737D01*
X138879179Y-86209394D01*
X139010289Y-86121789D01*
X139121789Y-86010289D01*
X139209394Y-85879179D01*
X139269737Y-85733497D01*
X139300500Y-85578842D01*
X139300500Y-85421158D01*
X139300500Y-85415066D01*
X139302491Y-85415066D01*
X139313796Y-85355413D01*
X139361855Y-85304697D01*
X139429704Y-85288015D01*
X139495801Y-85310662D01*
X139531574Y-85349892D01*
X139801372Y-85817197D01*
X139804470Y-85822902D01*
X140134269Y-86470167D01*
X140137064Y-86476027D01*
X140432531Y-87139657D01*
X140435015Y-87145654D01*
X140695347Y-87823842D01*
X140697514Y-87829962D01*
X140921991Y-88520832D01*
X140923835Y-88527056D01*
X141111855Y-89228756D01*
X141113370Y-89235069D01*
X141264401Y-89945618D01*
X141265584Y-89952001D01*
X141379222Y-90669479D01*
X141380070Y-90675915D01*
X141456005Y-91398389D01*
X141456514Y-91404861D01*
X141494533Y-92130292D01*
X141494703Y-92136782D01*
X141494703Y-92863217D01*
X141494533Y-92869707D01*
X141456514Y-93595138D01*
X141456005Y-93601610D01*
X141380070Y-94324084D01*
X141379222Y-94330520D01*
X141265584Y-95047998D01*
X141264401Y-95054381D01*
X141113370Y-95764930D01*
X141111855Y-95771243D01*
X140923835Y-96472943D01*
X140921991Y-96479167D01*
X140697514Y-97170037D01*
X140695347Y-97176157D01*
X140435015Y-97854345D01*
X140432531Y-97860342D01*
X140137064Y-98523972D01*
X140134269Y-98529832D01*
X139804470Y-99177097D01*
X139801372Y-99182802D01*
X139438158Y-99811909D01*
X139434766Y-99817444D01*
X139039123Y-100426681D01*
X139035446Y-100432031D01*
X138608463Y-101019722D01*
X138604511Y-101024873D01*
X138147343Y-101589427D01*
X138143127Y-101594363D01*
X137657048Y-102134210D01*
X137652579Y-102138919D01*
X137138919Y-102652579D01*
X137134210Y-102657048D01*
X136594363Y-103143127D01*
X136589427Y-103147343D01*
X136024873Y-103604511D01*
X136019722Y-103608463D01*
X135432031Y-104035446D01*
X135426681Y-104039123D01*
X134817444Y-104434766D01*
X134811909Y-104438158D01*
X134182802Y-104801372D01*
X134177097Y-104804470D01*
X133529832Y-105134269D01*
X133523972Y-105137064D01*
X132860342Y-105432531D01*
X132854345Y-105435015D01*
X132176157Y-105695347D01*
X132170037Y-105697514D01*
X131479167Y-105921991D01*
X131472943Y-105923835D01*
X130771243Y-106111855D01*
X130764930Y-106113370D01*
X130054381Y-106264401D01*
X130047998Y-106265584D01*
X129330520Y-106379222D01*
X129324084Y-106380070D01*
X128601610Y-106456005D01*
X128595138Y-106456514D01*
X127869708Y-106494533D01*
X127863218Y-106494703D01*
X127136782Y-106494703D01*
X127130292Y-106494533D01*
X126404861Y-106456514D01*
X126398389Y-106456005D01*
X125675915Y-106380070D01*
X125669479Y-106379222D01*
X124952001Y-106265584D01*
X124945618Y-106264401D01*
X124235069Y-106113370D01*
X124228756Y-106111855D01*
X123527056Y-105923835D01*
X123520832Y-105921991D01*
X122829962Y-105697514D01*
X122823842Y-105695347D01*
X122145654Y-105435015D01*
X122139657Y-105432531D01*
X121476027Y-105137064D01*
X121470167Y-105134269D01*
X120822902Y-104804470D01*
X120817197Y-104801372D01*
X120188090Y-104438158D01*
X120182555Y-104434766D01*
X119573309Y-104039117D01*
X119567968Y-104035446D01*
X118980277Y-103608463D01*
X118975126Y-103604511D01*
X118410572Y-103147343D01*
X118405636Y-103143127D01*
X117865789Y-102657048D01*
X117861080Y-102652579D01*
X117347420Y-102138919D01*
X117342951Y-102134210D01*
X116856872Y-101594363D01*
X116852656Y-101589427D01*
X116395488Y-101024873D01*
X116391536Y-101019722D01*
X116034024Y-100527649D01*
X115964542Y-100432015D01*
X115960888Y-100426698D01*
X115565222Y-99817426D01*
X115561852Y-99811927D01*
X115198627Y-99182802D01*
X115195529Y-99177097D01*
X115194323Y-99174730D01*
X114865721Y-98529815D01*
X114862943Y-98523989D01*
X114567466Y-97860338D01*
X114564984Y-97854345D01*
X114304652Y-97176157D01*
X114302485Y-97170037D01*
X114108500Y-96573013D01*
X114078004Y-96479156D01*
X114076164Y-96472943D01*
X113888141Y-95771230D01*
X113886629Y-95764930D01*
X113838611Y-95539024D01*
X113735598Y-95054381D01*
X113734415Y-95047998D01*
X113722736Y-94974266D01*
X113620772Y-94330488D01*
X113619933Y-94324116D01*
X113543992Y-93601585D01*
X113543487Y-93595163D01*
X113505467Y-92869707D01*
X113505297Y-92863217D01*
X113505297Y-92136782D01*
X113505467Y-92130292D01*
X113531718Y-91629394D01*
X113543487Y-91404836D01*
X113543991Y-91398417D01*
X113619933Y-90675878D01*
X113620772Y-90669516D01*
X113734415Y-89951998D01*
X113735598Y-89945618D01*
X113737916Y-89934714D01*
X113886634Y-89235047D01*
X113888138Y-89228777D01*
X114076170Y-88527035D01*
X114078001Y-88520853D01*
X114302493Y-87829938D01*
X114304643Y-87823866D01*
X114564990Y-87145637D01*
X114567460Y-87139674D01*
X114862950Y-86475995D01*
X114865714Y-86470199D01*
X114890704Y-86421153D01*
X121379500Y-86421153D01*
X121379500Y-86578846D01*
X121410261Y-86733489D01*
X121410264Y-86733501D01*
X121470602Y-86879172D01*
X121470609Y-86879185D01*
X121558210Y-87010288D01*
X121558213Y-87010292D01*
X121669707Y-87121786D01*
X121669711Y-87121789D01*
X121800814Y-87209390D01*
X121800827Y-87209397D01*
X121895799Y-87248735D01*
X121946503Y-87269737D01*
X122099132Y-87300097D01*
X122101153Y-87300499D01*
X122101156Y-87300500D01*
X122101158Y-87300500D01*
X122258844Y-87300500D01*
X122258845Y-87300499D01*
X122413497Y-87269737D01*
X122559179Y-87209394D01*
X122690289Y-87121789D01*
X122801789Y-87010289D01*
X122889394Y-86879179D01*
X122949737Y-86733497D01*
X122956339Y-86700309D01*
X122988724Y-86638398D01*
X123049439Y-86603824D01*
X123077956Y-86600500D01*
X124188429Y-86600500D01*
X124255468Y-86620185D01*
X124301223Y-86672989D01*
X124311167Y-86742147D01*
X124287695Y-86798811D01*
X124206206Y-86907664D01*
X124206202Y-86907671D01*
X124155908Y-87042517D01*
X124149501Y-87102116D01*
X124149501Y-87102123D01*
X124149500Y-87102135D01*
X124149500Y-88897870D01*
X124149501Y-88897876D01*
X124155908Y-88957483D01*
X124206202Y-89092328D01*
X124206206Y-89092335D01*
X124292452Y-89207544D01*
X124292455Y-89207547D01*
X124407664Y-89293793D01*
X124407671Y-89293797D01*
X124452618Y-89310561D01*
X124542517Y-89344091D01*
X124602127Y-89350500D01*
X124612685Y-89350499D01*
X124679723Y-89370179D01*
X124700372Y-89386818D01*
X125370591Y-90057037D01*
X125307007Y-90074075D01*
X125192993Y-90139901D01*
X125099901Y-90232993D01*
X125034075Y-90347007D01*
X125017037Y-90410591D01*
X124384728Y-89778282D01*
X124384727Y-89778282D01*
X124345380Y-89832439D01*
X124248904Y-90021782D01*
X124183242Y-90223869D01*
X124183242Y-90223872D01*
X124150000Y-90433753D01*
X124150000Y-90646246D01*
X124183242Y-90856127D01*
X124183242Y-90856130D01*
X124248904Y-91058217D01*
X124345375Y-91247550D01*
X124384728Y-91301716D01*
X125017037Y-90669408D01*
X125034075Y-90732993D01*
X125099901Y-90847007D01*
X125192993Y-90940099D01*
X125307007Y-91005925D01*
X125370590Y-91022962D01*
X124738282Y-91655269D01*
X124738282Y-91655270D01*
X124792449Y-91694624D01*
X124981782Y-91791095D01*
X125183870Y-91856757D01*
X125393754Y-91890000D01*
X125606246Y-91890000D01*
X125816127Y-91856757D01*
X125816130Y-91856757D01*
X126018217Y-91791095D01*
X126207554Y-91694622D01*
X126261716Y-91655270D01*
X126261717Y-91655270D01*
X125629408Y-91022962D01*
X125692993Y-91005925D01*
X125807007Y-90940099D01*
X125900099Y-90847007D01*
X125965925Y-90732993D01*
X125982962Y-90669408D01*
X126635693Y-91322139D01*
X126669178Y-91383462D01*
X126672012Y-91409820D01*
X126672012Y-95192748D01*
X126652327Y-95259787D01*
X126651114Y-95261639D01*
X126563121Y-95393328D01*
X126563114Y-95393341D01*
X126502776Y-95539012D01*
X126502773Y-95539024D01*
X126472012Y-95693667D01*
X126472012Y-95851360D01*
X126502773Y-96006003D01*
X126502776Y-96006015D01*
X126563114Y-96151686D01*
X126563121Y-96151699D01*
X126650722Y-96282802D01*
X126650725Y-96282806D01*
X126762219Y-96394300D01*
X126762223Y-96394303D01*
X126893326Y-96481904D01*
X126893339Y-96481911D01*
X127039010Y-96542249D01*
X127039015Y-96542251D01*
X127193665Y-96573013D01*
X127193668Y-96573014D01*
X127193670Y-96573014D01*
X127351356Y-96573014D01*
X127351357Y-96573013D01*
X127506009Y-96542251D01*
X127651691Y-96481908D01*
X127782801Y-96394303D01*
X127894301Y-96282803D01*
X127981906Y-96151693D01*
X128042249Y-96006011D01*
X128073012Y-95851356D01*
X128073012Y-95693672D01*
X128073012Y-95693669D01*
X128073011Y-95693667D01*
X128042250Y-95539024D01*
X128042249Y-95539017D01*
X128042247Y-95539012D01*
X127981909Y-95393341D01*
X127981902Y-95393328D01*
X127893910Y-95261639D01*
X127873032Y-95194961D01*
X127873012Y-95192748D01*
X127873012Y-89861572D01*
X127873013Y-89861559D01*
X127873013Y-89693456D01*
X127832088Y-89540726D01*
X127832085Y-89540721D01*
X127753036Y-89403802D01*
X127753030Y-89403794D01*
X126886818Y-88537582D01*
X126853333Y-88476259D01*
X126850499Y-88449901D01*
X126850499Y-87102129D01*
X126850498Y-87102123D01*
X126850497Y-87102116D01*
X126844091Y-87042517D01*
X126832070Y-87010288D01*
X126793797Y-86907671D01*
X126793793Y-86907664D01*
X126712305Y-86798811D01*
X126687887Y-86733347D01*
X126702738Y-86665074D01*
X126752143Y-86615668D01*
X126811571Y-86600500D01*
X127599903Y-86600500D01*
X127666942Y-86620185D01*
X127687584Y-86636819D01*
X128263181Y-87212416D01*
X128296666Y-87273739D01*
X128299500Y-87300097D01*
X128299500Y-88247870D01*
X128299501Y-88247876D01*
X128305908Y-88307483D01*
X128356202Y-88442328D01*
X128356206Y-88442335D01*
X128442452Y-88557544D01*
X128442455Y-88557547D01*
X128557664Y-88643793D01*
X128557671Y-88643797D01*
X128692517Y-88694091D01*
X128692516Y-88694091D01*
X128699444Y-88694835D01*
X128752127Y-88700500D01*
X130047872Y-88700499D01*
X130107483Y-88694091D01*
X130242331Y-88643796D01*
X130357546Y-88557546D01*
X130443796Y-88442331D01*
X130494091Y-88307483D01*
X130500500Y-88247873D01*
X130500499Y-86752155D01*
X131500000Y-86752155D01*
X131500000Y-87250000D01*
X132350000Y-87250000D01*
X132350000Y-86300000D01*
X131952155Y-86300000D01*
X131892627Y-86306401D01*
X131892620Y-86306403D01*
X131757913Y-86356645D01*
X131757906Y-86356649D01*
X131642812Y-86442809D01*
X131642809Y-86442812D01*
X131556649Y-86557906D01*
X131556645Y-86557913D01*
X131506403Y-86692620D01*
X131506401Y-86692627D01*
X131500000Y-86752155D01*
X130500499Y-86752155D01*
X130500499Y-86752128D01*
X130494091Y-86692517D01*
X130483855Y-86665074D01*
X130443797Y-86557671D01*
X130443793Y-86557664D01*
X130357547Y-86442455D01*
X130357544Y-86442452D01*
X130242335Y-86356206D01*
X130242328Y-86356202D01*
X130107482Y-86305908D01*
X130107483Y-86305908D01*
X130047883Y-86299501D01*
X130047881Y-86299500D01*
X130047873Y-86299500D01*
X130047865Y-86299500D01*
X129100097Y-86299500D01*
X129033058Y-86279815D01*
X129012416Y-86263181D01*
X128387590Y-85638355D01*
X128387588Y-85638352D01*
X128268717Y-85519481D01*
X128268716Y-85519480D01*
X128181904Y-85469360D01*
X128181904Y-85469359D01*
X128181900Y-85469358D01*
X128131785Y-85440423D01*
X127979057Y-85399499D01*
X127820943Y-85399499D01*
X127813347Y-85399499D01*
X127813331Y-85399500D01*
X122766670Y-85399500D01*
X122766654Y-85399499D01*
X122759058Y-85399499D01*
X122600943Y-85399499D01*
X122524579Y-85419961D01*
X122448214Y-85440423D01*
X122448209Y-85440426D01*
X122311290Y-85519475D01*
X122311286Y-85519478D01*
X122165337Y-85665427D01*
X122104014Y-85698911D01*
X122101848Y-85699362D01*
X121946508Y-85730261D01*
X121946498Y-85730264D01*
X121800827Y-85790602D01*
X121800814Y-85790609D01*
X121669711Y-85878210D01*
X121669707Y-85878213D01*
X121558213Y-85989707D01*
X121558210Y-85989711D01*
X121470609Y-86120814D01*
X121470602Y-86120827D01*
X121410264Y-86266498D01*
X121410261Y-86266510D01*
X121379500Y-86421153D01*
X114890704Y-86421153D01*
X115195537Y-85822886D01*
X115198618Y-85817212D01*
X115561862Y-85188055D01*
X115565211Y-85182590D01*
X115960899Y-84573283D01*
X115964529Y-84568002D01*
X116391555Y-83980252D01*
X116395469Y-83975150D01*
X116852662Y-83410564D01*
X116856872Y-83405636D01*
X116980406Y-83268438D01*
X117313350Y-82898664D01*
X117372837Y-82862016D01*
X117442694Y-82863347D01*
G37*
%TD.AperFunction*%
%TD*%
M02*
