%TF.GenerationSoftware,KiCad,Pcbnew,10.0.6*%
%TF.CreationDate,2026-10-03T00:37:55-07:00*%
%TF.ProjectId,flight_tracker_pendant,666c6967-6874-45f7-9472-61636b65725f,rev?*%
%TF.SameCoordinates,Original*%
%TF.FileFunction,Legend,Bot*%
%TF.FilePolarity,Positive*%
%FSLAX46Y46*%
G04 Gerber Fmt 4.6, Leading zero omitted, Abs format (unit mm)*
G04 Created by KiCad (PCBNEW 10.0.6) date 2026-10-03 00:37:55*
%MOMM*%
%LPD*%
G01*
G04 APERTURE LIST*
%ADD10C,0.250000*%
%ADD11C,0.150000*%
%ADD12C,0.120000*%
G04 APERTURE END LIST*
D10*
G36*
X131002355Y-97885502D02*
G01*
X131032522Y-97882127D01*
X131075994Y-97869748D01*
X131147069Y-97846973D01*
X131309475Y-97816824D01*
X131438236Y-97800931D01*
X131539170Y-97796231D01*
X132294521Y-97790980D01*
X132409826Y-97781611D01*
X132531376Y-97755992D01*
X132605800Y-97729409D01*
X132651499Y-97702743D01*
X132676093Y-97675813D01*
X132683967Y-97647487D01*
X132676539Y-97613801D01*
X132653063Y-97578887D01*
X132610059Y-97541584D01*
X132542113Y-97501048D01*
X132442258Y-97456734D01*
X132320171Y-97414799D01*
X132158169Y-97368782D01*
X131948399Y-97318492D01*
X131538529Y-97236243D01*
X131949742Y-97206447D01*
X132138359Y-97199485D01*
X132373223Y-97204406D01*
X132483934Y-97215040D01*
X132525056Y-97226596D01*
X132573280Y-97248671D01*
X132598695Y-97253768D01*
X132629547Y-97250171D01*
X132658563Y-97239067D01*
X132686898Y-97218780D01*
X132715982Y-97182847D01*
X132725000Y-97148804D01*
X132717913Y-97128641D01*
X132694773Y-97108925D01*
X132648961Y-97088728D01*
X132569936Y-97068265D01*
X132450860Y-97049532D01*
X132349110Y-97043780D01*
X132216303Y-97045490D01*
X132083587Y-97047260D01*
X131962787Y-97050924D01*
X131762835Y-97064724D01*
X131562882Y-97078573D01*
X131442083Y-97082248D01*
X131121331Y-97082248D01*
X131105578Y-97079623D01*
X131089824Y-97076997D01*
X131058789Y-97081604D01*
X131030301Y-97096185D01*
X131003087Y-97124258D01*
X130981184Y-97163268D01*
X130974145Y-97201256D01*
X130980309Y-97245218D01*
X130997331Y-97279956D01*
X131024069Y-97307447D01*
X131060881Y-97328995D01*
X131097974Y-97337792D01*
X131181873Y-97348229D01*
X131310742Y-97358731D01*
X131524281Y-97391411D01*
X131910297Y-97469007D01*
X132189382Y-97536570D01*
X132328516Y-97581318D01*
X132384049Y-97609877D01*
X132396737Y-97628253D01*
X132391121Y-97637400D01*
X132370788Y-97644299D01*
X132322915Y-97647487D01*
X132254405Y-97643091D01*
X132180582Y-97638756D01*
X131466355Y-97656280D01*
X131307024Y-97668060D01*
X131150000Y-97692978D01*
X131040281Y-97722486D01*
X130975429Y-97752687D01*
X130941819Y-97783239D01*
X130931280Y-97815526D01*
X130940745Y-97841266D01*
X130978633Y-97883731D01*
X131002355Y-97885502D01*
G37*
G36*
X132618204Y-98268597D02*
G01*
X132644010Y-98264094D01*
X132672485Y-98248499D01*
X132705491Y-98216085D01*
X132739179Y-98164898D01*
X132748447Y-98128585D01*
X132738276Y-98090473D01*
X132704208Y-98046336D01*
X132670947Y-98020904D01*
X132636678Y-98007083D01*
X132599978Y-98002616D01*
X132567736Y-98006308D01*
X132537295Y-98017700D01*
X132507471Y-98038459D01*
X132476786Y-98075731D01*
X132467079Y-98112831D01*
X132476973Y-98159712D01*
X132508753Y-98210833D01*
X132546695Y-98245573D01*
X132582592Y-98263212D01*
X132618204Y-98268597D01*
G37*
G36*
X131029008Y-99432231D02*
G01*
X131062814Y-99428194D01*
X131089275Y-99416477D01*
X131136444Y-99388450D01*
X131173261Y-99379637D01*
X131272732Y-99367506D01*
X131629570Y-99343080D01*
X131981505Y-99328541D01*
X132328868Y-99323726D01*
X132459713Y-99328113D01*
X132548296Y-99339244D01*
X132605560Y-99354654D01*
X132640398Y-99372876D01*
X132659054Y-99393763D01*
X132729854Y-99393763D01*
X132767149Y-99376631D01*
X132788161Y-99355500D01*
X132795341Y-99329038D01*
X132787803Y-99298393D01*
X132764867Y-99270289D01*
X132723637Y-99243595D01*
X132658454Y-99218062D01*
X132561509Y-99194277D01*
X132450202Y-99175891D01*
X132334819Y-99164759D01*
X132214746Y-99160999D01*
X131834636Y-99164847D01*
X131552634Y-99174982D01*
X132170416Y-99068248D01*
X132389720Y-99016976D01*
X132525367Y-98973504D01*
X132601699Y-98937050D01*
X132638307Y-98906362D01*
X132648796Y-98879265D01*
X132640163Y-98843811D01*
X132613189Y-98808836D01*
X132563788Y-98773058D01*
X132485076Y-98735861D01*
X132367978Y-98697243D01*
X132191401Y-98651867D01*
X131916331Y-98592767D01*
X131512242Y-98516992D01*
X131691554Y-98509140D01*
X131876500Y-98506489D01*
X132235032Y-98510690D01*
X132434747Y-98520472D01*
X132470298Y-98525346D01*
X132535681Y-98540622D01*
X132602125Y-98555152D01*
X132644399Y-98559002D01*
X132679712Y-98553873D01*
X132705481Y-98538797D01*
X132723514Y-98510697D01*
X132730861Y-98462770D01*
X132722447Y-98434016D01*
X132696835Y-98409198D01*
X132649494Y-98387071D01*
X132571547Y-98368142D01*
X132450941Y-98354421D01*
X132273089Y-98349014D01*
X132064442Y-98351951D01*
X131718597Y-98362997D01*
X131373057Y-98374053D01*
X131166669Y-98376980D01*
X131146334Y-98373855D01*
X131122247Y-98362997D01*
X131098149Y-98352142D01*
X131077734Y-98349014D01*
X131029204Y-98354830D01*
X130991193Y-98371744D01*
X130961075Y-98401750D01*
X130939736Y-98450017D01*
X130931280Y-98524014D01*
X130937986Y-98549354D01*
X130961087Y-98580698D01*
X131007026Y-98620245D01*
X131252581Y-98637770D01*
X131499935Y-98664421D01*
X131861296Y-98720019D01*
X132095322Y-98765963D01*
X132234461Y-98802151D01*
X132308446Y-98830152D01*
X132341210Y-98851609D01*
X132349842Y-98868763D01*
X132336835Y-98881377D01*
X132268784Y-98905521D01*
X132094754Y-98945875D01*
X131826674Y-98991250D01*
X131371467Y-99054265D01*
X131062805Y-99105006D01*
X130997367Y-99128518D01*
X130952069Y-99160764D01*
X130923904Y-99203159D01*
X130913695Y-99259002D01*
X130920167Y-99302716D01*
X130942546Y-99360484D01*
X130973269Y-99405681D01*
X131001677Y-99426403D01*
X131029008Y-99432231D01*
G37*
G36*
X132618204Y-99825889D02*
G01*
X132644010Y-99821387D01*
X132672485Y-99805791D01*
X132705491Y-99773377D01*
X132739179Y-99722190D01*
X132748447Y-99685877D01*
X132738276Y-99647765D01*
X132704208Y-99603628D01*
X132670947Y-99578197D01*
X132636678Y-99564375D01*
X132599978Y-99559909D01*
X132567736Y-99563600D01*
X132537295Y-99574992D01*
X132507471Y-99595751D01*
X132476786Y-99633023D01*
X132467079Y-99670123D01*
X132476973Y-99717005D01*
X132508753Y-99768126D01*
X132546695Y-99802865D01*
X132582592Y-99820505D01*
X132618204Y-99825889D01*
G37*
G36*
X132613625Y-100431123D02*
G01*
X132662509Y-100423862D01*
X132710070Y-100400471D01*
X132743800Y-100367952D01*
X132754309Y-100334891D01*
X132749126Y-100307873D01*
X132732555Y-100278416D01*
X132702193Y-100245621D01*
X132663737Y-100217795D01*
X132626921Y-100203047D01*
X132590177Y-100198421D01*
X132543453Y-100205707D01*
X132495106Y-100229867D01*
X132460091Y-100262982D01*
X132449494Y-100294652D01*
X132460659Y-100341824D01*
X132495106Y-100387342D01*
X132529476Y-100412157D01*
X132568375Y-100426332D01*
X132613625Y-100431123D01*
G37*
G36*
X131773460Y-100443396D02*
G01*
X131815221Y-100438807D01*
X131850656Y-100425241D01*
X131881537Y-100401386D01*
X131911878Y-100357531D01*
X131921929Y-100310406D01*
X131915145Y-100270980D01*
X131897058Y-100243182D01*
X131868954Y-100223894D01*
X131829159Y-100211685D01*
X131773460Y-100207152D01*
X131714645Y-100213668D01*
X131675283Y-100231405D01*
X131650216Y-100261301D01*
X131640561Y-100308635D01*
X131648450Y-100354367D01*
X131671794Y-100396135D01*
X131700858Y-100423417D01*
X131734177Y-100438412D01*
X131773460Y-100443396D01*
G37*
G36*
X131859098Y-100859830D02*
G01*
X132074829Y-100853711D01*
X132275697Y-100835856D01*
X132463157Y-100806858D01*
X132638538Y-100767079D01*
X132720780Y-100740191D01*
X132769088Y-100715230D01*
X132793696Y-100691912D01*
X132801203Y-100669077D01*
X132792695Y-100638184D01*
X132764475Y-100603497D01*
X132737242Y-100583474D01*
X132710501Y-100572761D01*
X132683142Y-100569364D01*
X132656416Y-100573356D01*
X132631943Y-100585973D01*
X132562425Y-100632379D01*
X132484819Y-100660074D01*
X132375837Y-100682654D01*
X132226663Y-100698230D01*
X132027076Y-100704125D01*
X131757185Y-100699648D01*
X131504823Y-100686601D01*
X131307563Y-100666850D01*
X131178077Y-100645333D01*
X131098378Y-100623611D01*
X131053463Y-100602643D01*
X131016734Y-100571135D01*
X130992211Y-100554334D01*
X130974694Y-100550130D01*
X130913874Y-100557245D01*
X130864510Y-100578096D01*
X130839701Y-100598366D01*
X130824971Y-100621406D01*
X130819905Y-100648133D01*
X130830438Y-100695333D01*
X130900309Y-100730207D01*
X130999624Y-100763956D01*
X131136065Y-100795885D01*
X131318527Y-100824842D01*
X131501051Y-100844379D01*
X131681117Y-100855987D01*
X131859098Y-100859830D01*
G37*
D11*
X133778095Y-106315180D02*
X133778095Y-105505657D01*
X133778095Y-105505657D02*
X133825714Y-105410419D01*
X133825714Y-105410419D02*
X133873333Y-105362800D01*
X133873333Y-105362800D02*
X133968571Y-105315180D01*
X133968571Y-105315180D02*
X134159047Y-105315180D01*
X134159047Y-105315180D02*
X134254285Y-105362800D01*
X134254285Y-105362800D02*
X134301904Y-105410419D01*
X134301904Y-105410419D02*
X134349523Y-105505657D01*
X134349523Y-105505657D02*
X134349523Y-106315180D01*
X135349523Y-105315180D02*
X134778095Y-105315180D01*
X135063809Y-105315180D02*
X135063809Y-106315180D01*
X135063809Y-106315180D02*
X134968571Y-106172323D01*
X134968571Y-106172323D02*
X134873333Y-106077085D01*
X134873333Y-106077085D02*
X134778095Y-106029466D01*
%TO.C,U1*%
D12*
X120840000Y-83270000D02*
X134240000Y-83270000D01*
X123540000Y-104270000D02*
X120940000Y-104270000D01*
X123540000Y-104270000D02*
X123540000Y-105470000D01*
X123540000Y-105470000D02*
X131540000Y-105470000D01*
X131540000Y-105470000D02*
X131540000Y-104270000D01*
X134140000Y-104270000D02*
X131540000Y-104270000D01*
X118740000Y-84770000D02*
G75*
G02*
X120840000Y-83270000I2174105J-823747D01*
G01*
X120939532Y-104269999D02*
G75*
G02*
X118727108Y-102774680I-77145J2270232D01*
G01*
X134240000Y-83270000D02*
G75*
G02*
X136340004Y-84769999I-74110J-2323760D01*
G01*
X136344034Y-102771464D02*
G75*
G02*
X134140000Y-104270001I-2139304J776364D01*
G01*
%TD*%
M02*
